<?xml version="1.0" encoding="UTF-8"?>
<svg version="1.1" xmlns="http://www.w3.org/2000/svg" width="146" height="289">
<path d="M0 0 C3.27360452 0.94762236 4.67284007 1.44525055 6.4375 4.4375 C6.623125 5.283125 6.80875 6.12875 7 7 C6.34 7.99 5.68 8.98 5 10 C4.76006345 12.53586848 4.62746781 14.97216031 4.5859375 17.51171875 C4.56657135 18.23994339 4.5472052 18.96816803 4.5272522 19.71846008 C4.46753624 22.04135475 4.42110383 24.36429919 4.375 26.6875 C4.33681279 28.26369332 4.29776062 29.83986595 4.2578125 31.41601562 C4.16021453 35.2772352 4.08058592 39.13823786 4 43 C13.24 43 22.48 43 32 43 C32.33 43.99 32.66 44.98 33 46 C32.505 46.99 32.505 46.99 32 48 C22.76 48 13.52 48 4 48 C4 53.61 4 59.22 4 65 C13.24 65 22.48 65 32 65 C32.33 66.32 32.66 67.64 33 69 C32 70 32 70 29.31616211 70.11352539 C28.14835205 70.10828857 26.98054199 70.10305176 25.77734375 70.09765625 C23.88725586 70.09282227 23.88725586 70.09282227 21.95898438 70.08789062 C20.61848891 70.07953403 19.27799412 70.07106907 17.9375 70.0625 C16.59310058 70.0574866 15.2486994 70.05292342 13.90429688 70.04882812 C10.60284567 70.03699497 7.3014174 70.01905886 4 70 C4 75.61 4 81.22 4 87 C12.91 87 21.82 87 31 87 C31.66 88.32 32.32 89.64 33 91 C31 93 31 93 28.29443359 93.22705078 C27.17375488 93.21657715 26.05307617 93.20610352 24.8984375 93.1953125 C23.68671875 93.18886719 22.475 93.18242187 21.2265625 93.17578125 C19.95554687 93.15902344 18.68453125 93.14226562 17.375 93.125 C16.09625 93.11597656 14.8175 93.10695313 13.5 93.09765625 C10.33325421 93.07402382 7.16660415 93.03815186 4 93 C4 98.28 4 103.56 4 109 C18.19 109 32.38 109 47 109 C46.94199219 104.16085938 46.88398437 99.32171875 46.82421875 94.3359375 C46.7986611 91.26428925 46.77459112 88.19277269 46.75585938 85.12109375 C46.72600663 80.24890814 46.6907492 75.37719379 46.62280273 70.50537109 C46.56834649 66.57607497 46.5385512 62.64728438 46.52561378 58.71763992 C46.5163981 57.22091339 46.49840137 55.72421352 46.47134972 54.22770309 C46.24226885 41.02592367 46.24226885 41.02592367 49.34301758 37.09619141 C52.71437978 34.43639945 55.06142223 33.87277604 59.23046875 33.90234375 C60.43413086 33.90717773 60.43413086 33.90717773 61.66210938 33.91210938 C62.91217773 33.92467773 62.91217773 33.92467773 64.1875 33.9375 C65.03248047 33.94201172 65.87746094 33.94652344 66.74804688 33.95117188 C68.83206155 33.96294597 70.91603977 33.9808811 73 34 C73.38218767 35.65614657 73.71395102 37.32457024 74 39 C72.48578999 40.51421001 71.07527232 40.21309856 68.96484375 40.31640625 C68.15595703 40.35830078 67.34707031 40.40019531 66.51367188 40.44335938 C65.66353516 40.48267578 64.81339844 40.52199219 63.9375 40.5625 C63.08349609 40.60568359 62.22949219 40.64886719 61.34960938 40.69335938 C59.23327963 40.79976702 57.11666187 40.90041731 55 41 C52.84008727 44.51092915 52.74963786 47.3203887 52.7484436 51.40097046 C52.74306076 52.71882034 52.73767792 54.03667023 52.73213196 55.39445496 C52.7361461 56.85330243 52.74031702 58.31214947 52.74462891 59.77099609 C52.74187864 61.30863124 52.73819852 62.84626497 52.73365784 64.38389587 C52.72554719 67.69437962 52.72337704 71.00479583 52.72560501 74.31528854 C52.72843785 79.55128244 52.71408714 84.78714137 52.69662476 90.02310181 C52.64959526 104.91186497 52.62565691 119.80061899 52.61914062 134.68945312 C52.61538954 142.91303359 52.59735642 151.13646138 52.56404626 159.35997641 C52.54383163 164.56349611 52.54146222 169.76662206 52.55232644 174.97016501 C52.55493502 178.21003969 52.54092247 181.4496855 52.52224541 184.68950081 C52.51692649 186.18987888 52.51841515 187.69029918 52.52728081 189.19066048 C52.53842648 191.24267372 52.52494552 193.29314284 52.50552368 195.34506226 C52.50443415 196.49210821 52.50334461 197.63915417 52.50222206 198.82095909 C51.88316532 202.73955777 50.45842672 204.92031861 48 208 C42.86009405 210.70115177 37.28907784 210.23003996 31.625 210.125 C30.69816406 210.11597656 29.77132812 210.10695313 28.81640625 210.09765625 C26.54399923 210.07422937 24.2721382 210.04142748 22 210 C22.12761719 210.7734375 22.25523438 211.546875 22.38671875 212.34375 C22.71835851 215.82381401 22.75203934 218.57591026 22 222 C18.82568214 225.51748736 15.08595705 227.66054702 11 230 C9.54097926 231.01985062 8.08254583 232.04054258 6.625 233.0625 C4.46730352 234.55007489 3.42429168 235.00674669 0.7890625 234.96484375 C-3.37884249 233.52300547 -6.67950198 231.04943834 -10.25 228.5 C-10.9821875 227.98824219 -11.714375 227.47648438 -12.46875 226.94921875 C-17.77494177 223.22505823 -17.77494177 223.22505823 -19 222 C-19.07244053 219.98035801 -19.08377188 217.95832876 -19.0625 215.9375 C-19.05347656 214.83277344 -19.04445312 213.72804688 -19.03515625 212.58984375 C-19.02355469 211.73519531 -19.01195312 210.88054687 -19 210 C-19.89924194 210.02356567 -19.89924194 210.02356567 -20.81665039 210.04760742 C-23.56516877 210.1104413 -26.31353542 210.14914235 -29.0625 210.1875 C-30.00544922 210.21263672 -30.94839844 210.23777344 -31.91992188 210.26367188 C-37.7313799 210.32441882 -41.96280545 210.0196966 -47 207 C-49.91389664 203.13458814 -50.37681723 200.29751329 -50.38526917 195.51000977 C-50.39491699 194.19775421 -50.40456482 192.88549866 -50.414505 191.53347778 C-50.41014166 190.0861198 -50.40550924 188.6387626 -50.40063477 187.19140625 C-50.4063791 185.6618496 -50.41346261 184.13229749 -50.42178345 182.60275269 C-50.43688454 179.31299642 -50.44267187 176.02340231 -50.44125557 172.73361206 C-50.43922101 167.53138213 -50.45879429 162.32937011 -50.48143005 157.12719727 C-50.52239724 147.02392624 -50.54100865 136.92067241 -50.55760193 126.81733704 C-50.57996035 113.95692439 -50.61349065 101.09656208 -50.66480106 88.2362318 C-50.68472131 83.06514646 -50.69430259 77.8941752 -50.69575322 72.72305298 C-50.69850409 69.50623777 -50.7093353 66.28948552 -50.72226334 63.07269669 C-50.72654185 61.58157052 -50.7274038 60.09043003 -50.72458839 58.59930038 C-50.72118458 56.56285851 -50.73111848 54.52640739 -50.74171448 52.48999023 C-50.74334878 51.35069565 -50.74498308 50.21140106 -50.74666691 49.0375824 C-50.88592005 45.57726369 -50.88592005 45.57726369 -53 41 C-58.94 40.67 -64.88 40.34 -71 40 C-71.33 38.35 -71.66 36.7 -72 35 C-69.85552692 32.85552692 -65.21113967 33.76844947 -62.25 33.75 C-61.43789063 33.729375 -60.62578125 33.70875 -59.7890625 33.6875 C-55.0296196 33.65649386 -51.82369277 33.85607483 -48 37 C-44.71880769 40.44281316 -44.63345276 43.02149651 -44.65942383 47.69628906 C-44.65876671 48.69202942 -44.65876671 48.69202942 -44.65809631 49.70788574 C-44.66018029 51.89410182 -44.68349145 54.0795435 -44.70703125 56.265625 C-44.71262863 57.7844806 -44.71689806 59.30334163 -44.71989441 60.82220459 C-44.7313321 64.81391432 -44.76078973 68.805295 -44.79400635 72.796875 C-44.83013537 77.58927613 -44.84387354 82.38178746 -44.86136627 87.17428589 C-44.89042805 94.44975257 -44.94792191 101.72449768 -45 109 C-30.81 109 -16.62 109 -2 109 C-2.11980547 91.5262814 -2.11980547 91.5262814 -2.2578125 74.05273438 C-2.31813603 66.9267046 -2.37632143 59.80070204 -2.421875 52.67456055 C-2.45873163 46.92975029 -2.50509294 41.18508838 -2.55806351 35.44040489 C-2.57660538 33.2479786 -2.5917141 31.0555205 -2.60334396 28.86304665 C-2.6202097 25.79371555 -2.64924608 22.72472403 -2.68115234 19.65551758 C-2.68331253 18.74777084 -2.68547272 17.84002411 -2.68769836 16.9047699 C-2.74626426 12.49861773 -2.92976327 9.00609986 -5 5 C-3.35 3.35 -1.7 1.7 0 0 Z M-14 210 C-15.04493699 218.51823027 -15.04493699 218.51823027 -11.515625 221.55859375 C-9.89914063 222.48865234 -9.89914063 222.48865234 -8.25 223.4375 C-7.18265625 224.07558594 -6.1153125 224.71367187 -5.015625 225.37109375 C-2.6943558 226.62493994 -0.37528099 227.85271622 2 229 C4.52892706 227.55790945 7.01549242 226.07782579 9.5 224.5625 C10.21542969 224.16095703 10.93085937 223.75941406 11.66796875 223.34570312 C14.05949302 221.94529975 14.05949302 221.94529975 17 219 C17 216.03 17 213.06 17 210 C6.77 210 -3.46 210 -14 210 Z " fill="#010102" transform="translate(72,54)"/>
<path d="M0 0 C14.85 0 29.7 0 45 0 C45 30.03 45 60.06 45 91 C31.8 91 18.6 91 5 91 C0.33722868 86.33722868 -0.1121994 84.6160066 -0.12442017 78.29598999 C-0.12082489 77.52131378 -0.11722961 76.74663757 -0.11352539 75.94848633 C-0.11367142 75.12874832 -0.11381744 74.30901031 -0.1139679 73.46443176 C-0.11327096 70.75360472 -0.10548878 68.0428463 -0.09765625 65.33203125 C-0.09579129 63.45301857 -0.09436776 61.5740054 -0.09336853 59.69499207 C-0.08954948 54.74824685 -0.07972438 49.80153098 -0.06866455 44.85479736 C-0.05663931 38.92016455 -0.05204528 32.98552194 -0.04621124 27.05088043 C-0.03651233 18.03389988 -0.01735148 9.01698371 0 0 Z " fill="#8798F8" transform="translate(26,168)"/>
<path d="M0 0 C14.85 0 29.7 0 45 0 C45.16043524 21.01255956 45.16043524 21.01255956 45.1953125 29.97070312 C45.21922225 36.08290498 45.2475048 42.19486711 45.30175781 48.30688477 C45.34522517 53.2346643 45.36913919 58.16218675 45.37950897 63.0901432 C45.38689873 64.9700354 45.40132923 66.84991355 45.42292023 68.72969627 C45.4519662 71.36331948 45.45595553 73.99588101 45.45410156 76.62963867 C45.47567322 77.79489326 45.47567322 77.79489326 45.49768066 78.98368835 C45.46933209 82.70638592 45.13000009 84.79778909 43.09661865 87.96064758 C39.18573866 91.7647073 35.45072379 91.12936352 30.2734375 91.09765625 C28.97921371 91.09553383 28.97921371 91.09553383 27.65884399 91.09336853 C24.8975277 91.08776188 22.13629188 91.07520827 19.375 91.0625 C17.5052095 91.05748586 15.63541774 91.0529228 13.765625 91.04882812 C9.17702723 91.0386403 4.58860392 91.01906622 0 91 C0 83.08 0 75.16 0 67 C9.24 66.67 18.48 66.34 28 66 C28 65.01 28 64.02 28 63 C14.14 62.505 14.14 62.505 0 62 C0 56.39 0 50.78 0 45 C9.24 44.67 18.48 44.34 28 44 C28 43.01 28 42.02 28 41 C14.14 40.505 14.14 40.505 0 40 C0 34.39 0 28.78 0 23 C9.24 22.67 18.48 22.34 28 22 C28 21.01 28 20.02 28 19 C14.14 18.505 14.14 18.505 0 18 C0 12.06 0 6.12 0 0 Z " fill="#8797F8" transform="translate(75,168)"/>
<path d="M0 0 C5.23643037 3.98816586 9.84856143 8.29863305 13.16796875 14.046875 C13.16796875 14.706875 13.16796875 15.366875 13.16796875 16.046875 C11.84796875 16.706875 10.52796875 17.366875 9.16796875 18.046875 C8.62269531 17.40621094 8.07742187 16.76554687 7.515625 16.10546875 C-4.7578024 2.02774262 -17.68339911 -5.19626934 -36.453125 -7.23828125 C-51.42018105 -7.80353952 -66.21388328 -2.21303129 -77.39453125 7.609375 C-80.81115881 10.89654221 -83.94213604 14.29001123 -86.83203125 18.046875 C-88.15203125 17.386875 -89.47203125 16.726875 -90.83203125 16.046875 C-89.21788342 7.86970851 -81.4830707 2.82076969 -75.12109375 -1.8046875 C-51.74603328 -17.07343246 -22.70780764 -15.66055699 0 0 Z " fill="#000000" transform="translate(111.83203125,11.953125)"/>
<path d="M0 0 C10.67941196 8.38979837 10.67941196 8.38979837 12.55078125 14.00390625 C11.23078125 14.99390625 9.91078125 15.98390625 8.55078125 17.00390625 C8.01710938 16.35164063 7.4834375 15.699375 6.93359375 15.02734375 C-0.8081699 5.94617463 -10.40488655 -1.0845635 -22.44921875 -2.99609375 C-31.52913377 -3.5032426 -39.92644568 -3.5472492 -48.44921875 0.00390625 C-49.11953125 0.25914063 -49.78984375 0.514375 -50.48046875 0.77734375 C-57.62165053 3.86618825 -64.15406611 9.56117728 -68.44921875 16.00390625 C-69.76921875 15.67390625 -71.08921875 15.34390625 -72.44921875 15.00390625 C-72.44921875 11.00390625 -72.44921875 11.00390625 -70.61328125 8.63671875 C-51.27137245 -10.46713578 -23.40557916 -16.05449356 0 0 Z " fill="#000000" transform="translate(103.44921875,19.99609375)"/>
<path d="M0 0 C7.17399447 6.24765372 7.17399447 6.24765372 9.09765625 10.80859375 C8.43765625 11.46859375 7.77765625 12.12859375 7.09765625 12.80859375 C6.10765625 12.80859375 5.11765625 12.80859375 4.09765625 12.80859375 C2.625 11.234375 2.625 11.234375 1.03515625 9.12109375 C-4.67780281 2.29694604 -13.36661745 -1.57001292 -22.203125 -2.41015625 C-32.44877939 -2.7925757 -40.99186218 0.31514727 -48.90234375 6.80859375 C-50.76672154 8.72959984 -52.30764502 10.64803418 -53.90234375 12.80859375 C-55.22234375 12.47859375 -56.54234375 12.14859375 -57.90234375 11.80859375 C-57.90234375 7.31380262 -57.6394583 6.95713653 -54.65234375 3.93359375 C-39.72381171 -10.20367334 -16.66335943 -12.58162132 0 0 Z " fill="#000000" transform="translate(97.90234375,30.19140625)"/>
<path d="M0 0 C7.55842185 5.67526555 7.55842185 5.67526555 9 10 C7.35 10.66 5.7 11.32 4 12 C3.360625 11.0925 2.72125 10.185 2.0625 9.25 C-1.9780224 4.48714958 -6.77467331 2.46510776 -12.8984375 1.58203125 C-20.27884608 1.23103495 -25.92490963 2.75889917 -32 7 C-34.5775972 9.58445078 -34.5775972 9.58445078 -36 12 C-38.475 11.01 -38.475 11.01 -41 10 C-38.44281621 4.12364332 -33.18126628 -0.30966397 -27.375 -2.9375 C-18.35798385 -5.78310668 -7.9496887 -5.23887531 0 0 Z " fill="#000000" transform="translate(89,38)"/>
<path d="M0 0 C2.5625 1.9375 2.5625 1.9375 4 4 C3.9375 6.1875 3.9375 6.1875 3 8 C2.01 8.33 1.02 8.66 0 9 C-0.639375 8.195625 -1.27875 7.39125 -1.9375 6.5625 C-5.88030356 3.26341947 -8.92528367 2.67836305 -14 3 C-18.10213689 4.49168614 -19.57068209 5.35602313 -22 9 C-23.32 8.34 -24.64 7.68 -26 7 C-25.6740051 3.95738092 -25.02104739 3.0198781 -22.75 0.875 C-15.20845086 -4.26696533 -8.00970038 -4.07419825 0 0 Z " fill="#000000" transform="translate(84,48)"/>
</svg>
