<?xml version="1.0" encoding="UTF-8"?>
<svg version="1.1" xmlns="http://www.w3.org/2000/svg" width="208" height="224">
<path d="M0 0 C1.4375 2.25 1.4375 2.25 2 4 C3.98 4 5.96 4 8 4 C8.33 2.35 8.66 0.7 9 -1 C13.49206718 -2.75300183 17.18522541 -3.70033085 22 -3 C25.55714183 0.17049598 26.70440184 2.00887675 28.0625 6.5625 C27.98545198 10.80014117 26.99583794 12.08737978 24 15 C20.31185227 17.45876515 17.283157 17.6943399 13 17 C9.72018249 14.93228896 8.15253993 13.22880989 6 10 C5.01 10.66 4.02 11.32 3 12 C2.69438679 14.86512384 2.53316815 17.56845532 2.5 20.4375 C2.46620718 23.34609597 2.29955363 26.09375371 2 29 C1.50177734 29.4235376 1.00355469 29.8470752 0.49023438 30.28344727 C-1.85841747 32.9887833 -1.35586018 36.00199927 -1.25 39.40625 C-1.23541748 40.12735962 -1.22083496 40.84846924 -1.20581055 41.59143066 C-1.1697127 43.1147105 -1.12548798 44.63781635 -1.07373047 46.16064453 C-1.00026612 48.49155642 -0.9694652 50.82049729 -0.94140625 53.15234375 C-0.90103439 54.63288559 -0.85814965 56.11336149 -0.8125 57.59375 C-0.80702148 58.2906897 -0.80154297 58.98762939 -0.79589844 59.70568848 C-0.75003065 61.92147023 -0.75003065 61.92147023 0 65 C0.83168701 65.48380127 1.66337402 65.96760254 2.52026367 66.46606445 C3.74773315 67.22536255 3.74773315 67.22536255 5 68 C5.45571003 70.85284279 5.58612807 73.10516971 5.48828125 75.94921875 C5.48120651 76.72183548 5.47413177 77.49445221 5.46684265 78.29048157 C5.43886255 80.75714142 5.37612407 83.22152704 5.3125 85.6875 C5.2874215 87.35999324 5.26460754 89.03252209 5.24414062 90.70507812 C5.18902491 94.80426109 5.10273296 98.90174507 5 103 C5.89831543 102.98952637 6.79663086 102.97905273 7.72216797 102.96826172 C11.05064447 102.9342053 14.37893622 102.90911382 17.70751953 102.89013672 C19.14895547 102.88007037 20.59037095 102.8664162 22.03173828 102.84912109 C24.10193934 102.82489988 26.17187076 102.81352359 28.2421875 102.8046875 C30.11173096 102.78897705 30.11173096 102.78897705 32.01904297 102.77294922 C35 103 35 103 37 105 C37.29866028 107.44673157 37.29866028 107.44673157 37.36645508 110.5637207 C37.41078423 112.31112297 37.41078423 112.31112297 37.45600891 114.09382629 C37.47697128 115.35837143 37.49793365 116.62291656 37.51953125 117.92578125 C37.54601242 119.22065964 37.57249359 120.51553802 37.59977722 121.84965515 C37.65425055 124.59427479 37.7010154 127.33890113 37.74291992 130.08374023 C37.79749938 133.59468042 37.87499794 137.10468625 37.95886707 140.61503315 C38.03497485 143.96839506 38.08845855 147.3220246 38.14453125 150.67578125 C38.19115654 152.56348991 38.19115654 152.56348991 38.23872375 154.48933411 C38.25251572 155.66372543 38.26630768 156.83811676 38.28051758 158.0480957 C38.2989119 159.0790889 38.31730621 160.11008209 38.33625793 161.1723175 C37.94076274 164.49814191 37.03575279 166.35590578 35 169 C31.99731445 169.65942383 31.99731445 169.65942383 28.36328125 169.70703125 C27.06455078 169.73603516 25.76582031 169.76503906 24.42773438 169.79492188 C23.05599195 169.80131122 21.68424693 169.80716372 20.3125 169.8125 C18.92899702 169.835642 17.5455293 169.86100675 16.16210938 169.88867188 C12.77445135 169.94769031 9.38808997 169.98386473 6 170 C5.98541748 170.89307861 5.97083496 171.78615723 5.95581055 172.70629883 C5.89472923 176.02217278 5.82057522 179.33721899 5.73754883 182.65258789 C5.70430999 184.08704628 5.67627465 185.52163513 5.65356445 186.95629883 C5.61999729 189.01960807 5.56768587 191.08172303 5.51171875 193.14453125 C5.48553467 194.38565674 5.45935059 195.62678223 5.43237305 196.90551758 C5 200 5 200 3.73950195 201.90576172 C1.56247175 203.27522829 0.22037389 203.3733228 -2.34375 203.36328125 C-3.17777344 203.36263672 -4.01179688 203.36199219 -4.87109375 203.36132812 C-5.73863281 203.34521484 -6.60617188 203.32910156 -7.5 203.3125 C-8.80130859 203.31733398 -8.80130859 203.31733398 -10.12890625 203.32226562 C-16.59910409 203.26726394 -16.59910409 203.26726394 -20 201 C-20.39872742 198.177948 -20.39872742 198.177948 -20.43237305 194.53076172 C-20.44766052 193.53545944 -20.44766052 193.53545944 -20.46325684 192.52005005 C-20.4934915 190.32317782 -20.50266818 188.12674081 -20.51171875 185.9296875 C-20.52855778 184.40795429 -20.54670697 182.88623506 -20.56611633 181.36453247 C-20.6137072 177.35655077 -20.64345742 173.3486257 -20.66955566 169.3404541 C-20.69931564 165.25159514 -20.7458615 161.16293156 -20.79101562 157.07421875 C-20.87715195 149.04957494 -20.9444509 141.02491353 -21 133 C-21.99 132.67 -22.98 132.34 -24 132 C-24 131.01 -24 130.02 -24 129 C-25.6874231 129.02356567 -25.6874231 129.02356567 -27.40893555 129.04760742 C-31.59278165 129.10201216 -35.77659662 129.13638836 -39.96069336 129.16479492 C-41.76966617 129.17985755 -43.5786026 129.20031177 -45.38745117 129.22631836 C-47.99146515 129.2628132 -50.5949952 129.27975157 -53.19921875 129.29296875 C-54.00461594 129.30845261 -54.81001312 129.32393646 -55.63981628 129.33988953 C-60.26434167 129.34126758 -63.22948243 128.97911275 -67 126 C-68.2578125 124.0625 -68.2578125 124.0625 -69.125 122 C-70.3960892 119.03037567 -71.69217722 117.24459475 -74 115 C-74.6875 112.8125 -74.6875 112.8125 -75 111 C-76.85625 111.309375 -76.85625 111.309375 -78.75 111.625 C-82.11909835 112.06107124 -84.12841921 112.03403639 -87 110 C-87 109.34 -87 108.68 -87 108 C-87.66 107.67 -88.32 107.34 -89 107 C-88.835 106.484375 -88.67 105.96875 -88.5 105.4375 C-87.84951 102.26636124 -87.9379266 99.22781666 -88 96 C-86.02 95.01 -86.02 95.01 -84 94 C-84.66 94 -85.32 94 -86 94 C-86 93.34 -86 92.68 -86 92 C-86.66 91.67 -87.32 91.34 -88 91 C-88 89.02 -88 87.04 -88 85 C-87.01 84.505 -87.01 84.505 -86 84 C-83.87491756 80.81237635 -83.4979837 78.73487777 -83 75 C-84.98 75 -86.96 75 -89 75 C-90.94547221 69.94502828 -91.56423093 65.15481099 -92.0625 59.8125 C-92.21705779 58.2145513 -92.37449216 56.61687755 -92.53515625 55.01953125 C-92.600979 54.31932861 -92.66680176 53.61912598 -92.73461914 52.89770508 C-92.9720024 50.78100608 -92.9720024 50.78100608 -94 48 C-90.7431281 45.82875207 -89.71527166 45.73002342 -85.93359375 45.64941406 C-84.90242432 45.62308899 -83.87125488 45.59676392 -82.80883789 45.56964111 C-81.69629639 45.5518158 -80.58375488 45.53399048 -79.4375 45.515625 C-77.72324829 45.47946075 -77.72324829 45.47946075 -75.97436523 45.44256592 C-73.55689456 45.39424786 -71.13932107 45.35086094 -68.72167969 45.31201172 C-65.01451754 45.2502419 -61.30825261 45.16719159 -57.6015625 45.08203125 C-55.2552322 45.03777825 -52.90887808 44.99476763 -50.5625 44.953125 C-48.89368774 44.91424164 -48.89368774 44.91424164 -47.19116211 44.87457275 C-45.64440796 44.85399811 -45.64440796 44.85399811 -44.06640625 44.83300781 C-43.15834229 44.81683411 -42.25027832 44.8006604 -41.31469727 44.78399658 C-39 45 -39 45 -36 47 C-35.91464469 49.58199825 -35.99966087 51.88433366 -36.25 54.4375 C-36.30792725 55.15164062 -36.36585449 55.86578125 -36.42553711 56.6015625 C-36.60204945 58.73599665 -36.7992618 60.86772547 -37 63 C-37.14888672 64.73443359 -37.14888672 64.73443359 -37.30078125 66.50390625 C-37.51920225 69.00433769 -37.75130125 71.50242954 -38 74 C-40.97 74.99 -40.97 74.99 -44 76 C-44 78.64 -44 81.28 -44 84 C-42.68 84.66 -41.36 85.32 -40 86 C-40 87.65 -40 89.3 -40 91 C-42.475 91.99 -42.475 91.99 -45 93 C-45 93.99 -45 94.98 -45 96 C-43.68 96.33 -42.36 96.66 -41 97 C-40.17000723 101.61107097 -39.72936836 105.44690328 -41 110 C-44.5486135 112.36574234 -45.5764525 112.10865265 -49.6875 111.625 C-50.68136719 111.51414062 -51.67523438 111.40328125 -52.69921875 111.2890625 C-53.45847656 111.19367188 -54.21773437 111.09828125 -55 111 C-55.33 112.98 -55.66 114.96 -56 117 C-46.1 117 -36.2 117 -26 117 C-25.34 115.35 -24.68 113.7 -24 112 C-22.02 112.495 -22.02 112.495 -20 113 C-20.05124023 111.68805664 -20.10248047 110.37611328 -20.15527344 109.02441406 C-20.33993418 104.15716338 -20.497536 99.28934746 -20.64697266 94.42089844 C-20.71543308 92.31387466 -20.79123188 90.20707602 -20.87451172 88.10058594 C-20.99295013 85.07255822 -21.08497449 82.04470153 -21.171875 79.015625 C-21.21439392 78.07382385 -21.25691284 77.13202271 -21.30072021 76.16168213 C-21.45148898 69.62871769 -21.45148898 69.62871769 -19.11425781 66.37402344 C-17 65 -17 65 -15 65 C-15 53.78 -15 42.56 -15 31 C-15.66 30.67 -16.32 30.34 -17 30 C-17.33 23.4 -17.66 16.8 -18 10 C-19.32 10.33 -20.64 10.66 -22 11 C-22.6837045 12.32467746 -23.34964186 13.65863633 -24 15 C-27.01761688 17.32124376 -30.28979744 17.41188886 -34.03125 17.328125 C-37.14316604 16.80947233 -38.85067869 15.21445226 -41 13 C-42.60216579 9.79566842 -42.34704259 6.48377373 -42 3 C-41 0.0625 -41 0.0625 -39 -2 C-34.57253951 -2.99974914 -30.32556568 -3.68216443 -26 -2 C-22 2.21621622 -22 2.21621622 -22 5 C-19.58414426 4.96906827 -19.58414426 4.96906827 -17 4 C-16.54625 3.030625 -16.0925 2.06125 -15.625 1.0625 C-14 -2 -14 -2 -10.75 -3.625 C-5.63782807 -4.13621719 -4.08638735 -3.0447592 0 0 Z M-9 30 C-9 41.88 -9 53.76 -9 66 C-8.67 65.34 -8.34 64.68 -8 64 C-7.34 64 -6.68 64 -6 64 C-6 52.78 -6 41.56 -6 30 C-6.99 30 -7.98 30 -9 30 Z M-79 75 C-79 77.64 -79 80.28 -79 83 C-69.43 83 -59.86 83 -50 83 C-50 80.36 -50 77.72 -50 75 C-59.57 75 -69.14 75 -79 75 Z M-70 95 C-68.94021067 96.28612676 -68.94021067 96.28612676 -66.49609375 96.09765625 C-65.48675781 96.08605469 -64.47742188 96.07445313 -63.4375 96.0625 C-62.42558594 96.05347656 -61.41367188 96.04445313 -60.37109375 96.03515625 C-59.58863281 96.02355469 -58.80617188 96.01195313 -58 96 C-57.67 95.01 -57.34 94.02 -57 93 C-58.79133978 92.94608007 -60.58313899 92.90724429 -62.375 92.875 C-63.37273437 92.85179688 -64.37046875 92.82859375 -65.3984375 92.8046875 C-68.16262173 92.72783152 -68.16262173 92.72783152 -70 95 Z M-9 108 C-9 118.56 -9 129.12 -9 140 C-8.67 140 -8.34 140 -8 140 C-7.67 136.37 -7.34 132.74 -7 129 C-4.6739143 128.61936779 -2.33944736 128.28730055 0 128 C1 129 1 129 1.09765625 132.16015625 C1.08605469 133.44792969 1.07445312 134.73570312 1.0625 136.0625 C1.05347656 137.35285156 1.04445313 138.64320313 1.03515625 139.97265625 C1.02355469 140.97167969 1.01195312 141.97070312 1 143 C-1.6739124 143.89130413 -4.23723823 144.47731534 -7 145 C-7 144.34 -7 143.68 -7 143 C-7.66 143 -8.32 143 -9 143 C-9 150.26 -9 157.52 -9 165 C4.53 164.67 18.06 164.34 32 164 C32 145.52 32 127.04 32 108 C18.47 108 4.94 108 -9 108 Z M-66 111 C-65 113 -65 113 -65 113 Z M-64 111 C-63.67 111.66 -63.34 112.32 -63 113 C-62.01 113 -61.02 113 -60 113 C-60 112.34 -60 111.68 -60 111 C-61.32 111 -62.64 111 -64 111 Z M-25 115 C-24 117 -24 117 -24 117 Z M-65 118 C-64.87822312 119.91466367 -64.87822312 119.91466367 -64 122 C-59.90192189 125.17435847 -56.71508353 125.35479794 -51.6171875 125.29296875 C-50.92110382 125.28872391 -50.22502014 125.28447906 -49.50784302 125.28010559 C-47.29649101 125.26340344 -45.08607271 125.2258047 -42.875 125.1875 C-41.38152378 125.17243892 -39.88803302 125.15875301 -38.39453125 125.14648438 C-34.59609526 125.1124893 -30.79816849 125.05652899 -27 125 C-26.01 125 -25.02 125 -24 125 C-24 124.01 -24 123.02 -24 122 C-25.40693115 122.00785522 -25.40693115 122.00785522 -26.84228516 122.01586914 C-30.34229148 122.03297297 -33.84225299 122.04548027 -37.34228516 122.05493164 C-38.85336002 122.05994162 -40.36443009 122.06675144 -41.87548828 122.07543945 C-44.05502512 122.08765176 -46.23449753 122.09326178 -48.4140625 122.09765625 C-50.37786865 122.10551147 -50.37786865 122.10551147 -52.38134766 122.11352539 C-55.71187998 122.00903898 -58.75944903 121.77483463 -62 121 C-62.33 120.34 -62.66 119.68 -63 119 C-63.66 118.67 -64.32 118.34 -65 118 Z " fill="#070708" transform="translate(131,12)"/>
<path d="M0 0 C-0.53160742 9.01470449 -1.10504464 18.01236323 -2 27 C-3.98 27.66 -5.96 28.32 -8 29 C-8 31.64 -8 34.28 -8 37 C-6.68 37.66 -5.36 38.32 -4 39 C-4 40.65 -4 42.3 -4 44 C-5.65 44.66 -7.3 45.32 -9 46 C-9 46.99 -9 47.98 -9 49 C-7.68 49.33 -6.36 49.66 -5 50 C-4.17000723 54.61107097 -3.72936836 58.44690328 -5 63 C-8.5486135 65.36574234 -9.5764525 65.10865265 -13.6875 64.625 C-14.68136719 64.51414062 -15.67523438 64.40328125 -16.69921875 64.2890625 C-17.45847656 64.19367188 -18.21773437 64.09828125 -19 64 C-19.33 65.65 -19.66 67.3 -20 69 C-20.99 69 -21.98 69 -23 69 C-23 69.66 -23 70.32 -23 71 C-11.78 71 -0.56 71 11 71 C11 71.99 11 72.98 11 74 C-2 74 -15 74 -28 74 C-27.34 75.32 -26.68 76.64 -26 78 C-13.46 78.33 -0.92 78.66 12 79 C11.67 79.66 11.34 80.32 11 81 C5.53743725 81.12381149 0.07569512 81.21443826 -5.38793945 81.2746582 C-7.24550609 81.29976702 -9.10297427 81.33386134 -10.96020508 81.37719727 C-13.63387358 81.43801124 -16.30623365 81.4662452 -18.98046875 81.48828125 C-20.2213752 81.52699089 -20.2213752 81.52699089 -21.48735046 81.56648254 C-25.82348358 81.56858082 -27.47476029 81.4152311 -30.9934082 78.63354492 C-32.92471136 76.09881233 -33.90821309 73.96342161 -35 71 C-35.515625 70.484375 -36.03125 69.96875 -36.5625 69.4375 C-38.29446732 67.70553268 -38.58987682 66.37871446 -39 64 C-40.85625 64.309375 -40.85625 64.309375 -42.75 64.625 C-46.11909835 65.06107124 -48.12841921 65.03403639 -51 63 C-51 62.34 -51 61.68 -51 61 C-51.66 60.67 -52.32 60.34 -53 60 C-52.835 59.484375 -52.67 58.96875 -52.5 58.4375 C-51.84951 55.26636124 -51.9379266 52.22781666 -52 49 C-50.68 48.34 -49.36 47.68 -48 47 C-48.66 47 -49.32 47 -50 47 C-50 46.34 -50 45.68 -50 45 C-50.66 44.67 -51.32 44.34 -52 44 C-52 42.02 -52 40.04 -52 38 C-51.01 37.505 -51.01 37.505 -50 37 C-47.87491756 33.81237635 -47.4979837 31.73487777 -47 28 C-48.98 28 -50.96 28 -53 28 C-54.94547221 22.94502828 -55.56423093 18.15481099 -56.0625 12.8125 C-56.21705779 11.2145513 -56.37449216 9.61687755 -56.53515625 8.01953125 C-56.600979 7.31932861 -56.66680176 6.61912598 -56.73461914 5.89770508 C-56.9720024 3.78100608 -56.9720024 3.78100608 -58 1 C-54.76822511 -1.15451659 -53.78367369 -1.26894516 -50.04125977 -1.35058594 C-49.03333878 -1.37691101 -48.02541779 -1.40323608 -46.98695374 -1.43035889 C-45.89942307 -1.4481842 -44.8118924 -1.46600952 -43.69140625 -1.484375 C-42.01400612 -1.52053925 -42.01400612 -1.52053925 -40.30271912 -1.55743408 C-37.93652506 -1.60575344 -35.57022593 -1.64914009 -33.20385742 -1.68798828 C-29.58009652 -1.74970033 -25.95726043 -1.83277313 -22.33398438 -1.91796875 C-20.03648284 -1.96222831 -17.73895683 -2.00523874 -15.44140625 -2.046875 C-13.81314659 -2.08575836 -13.81314659 -2.08575836 -12.1519928 -2.12542725 C-11.14091965 -2.13914368 -10.1298465 -2.15286011 -9.08813477 -2.16699219 C-8.2000563 -2.18316589 -7.31197784 -2.1993396 -6.39698792 -2.21600342 C-3.8219379 -1.98395402 -2.21267149 -1.30177692 0 0 Z M-43 28 C-43 30.64 -43 33.28 -43 36 C-33.43 36 -23.86 36 -14 36 C-14 33.36 -14 30.72 -14 28 C-23.57 28 -33.14 28 -43 28 Z M-34 48 C-32.94021067 49.28612676 -32.94021067 49.28612676 -30.49609375 49.09765625 C-29.48675781 49.08605469 -28.47742188 49.07445312 -27.4375 49.0625 C-26.42558594 49.05347656 -25.41367188 49.04445312 -24.37109375 49.03515625 C-23.58863281 49.02355469 -22.80617188 49.01195312 -22 49 C-21.67 48.01 -21.34 47.02 -21 46 C-22.79133978 45.94608007 -24.58313899 45.90724429 -26.375 45.875 C-27.37273437 45.85179687 -28.37046875 45.82859375 -29.3984375 45.8046875 C-32.16262173 45.72783152 -32.16262173 45.72783152 -34 48 Z M-30 64 C-29 66 -29 66 -29 66 Z M-28 64 C-27.67 64.66 -27.34 65.32 -27 66 C-26.01 66 -25.02 66 -24 66 C-24 65.34 -24 64.68 -24 64 C-25.32 64 -26.64 64 -28 64 Z " fill="#5A5D67" transform="translate(95,59)"/>
<path d="M0 0 C1.4375 2.25 1.4375 2.25 2 4 C3.98 4 5.96 4 8 4 C8.33 2.35 8.66 0.7 9 -1 C13.49206718 -2.75300183 17.18522541 -3.70033085 22 -3 C25.55714183 0.17049598 26.70440184 2.00887675 28.0625 6.5625 C27.98545198 10.80014117 26.99583794 12.08737978 24 15 C20.31185227 17.45876515 17.283157 17.6943399 13 17 C9.72018249 14.93228896 8.15253993 13.22880989 6 10 C5.01 10.66 4.02 11.32 3 12 C2.61615491 14.93597539 2.396157 17.68027373 2.3125 20.625 C2.27833984 21.42679688 2.24417969 22.22859375 2.20898438 23.0546875 C2.12643122 25.03596318 2.06154084 27.01796037 2 29 C1.21625 29.309375 0.4325 29.61875 -0.375 29.9375 C-2.92330128 30.92875038 -2.92330128 30.92875038 -5 32 C-5 31.34 -5 30.68 -5 30 C-5.99 30.33 -6.98 30.66 -8 31 C-8.99 30.505 -8.99 30.505 -10 30 C-9.98428955 31.61225464 -9.98428955 31.61225464 -9.96826172 33.25708008 C-9.93207221 37.24337435 -9.90910337 41.22965408 -9.89013672 45.21606445 C-9.88007674 46.94167523 -9.86642724 48.66726895 -9.84912109 50.39282227 C-9.82487246 52.8726014 -9.81351699 55.35215523 -9.8046875 57.83203125 C-9.79436493 58.60400345 -9.78404236 59.37597565 -9.77340698 60.17134094 C-9.77260578 63.99281476 -9.82757405 65.74136107 -12 69 C-13.98 69.495 -13.98 69.495 -16 70 C-16.33 83.86 -16.66 97.72 -17 112 C-18.485 112.495 -18.485 112.495 -20 113 C-20.24185454 106.80761112 -20.45684239 100.61509165 -20.64697266 94.42089844 C-20.71543308 92.31387466 -20.79123188 90.20707602 -20.87451172 88.10058594 C-20.99295013 85.07255822 -21.08497449 82.04470153 -21.171875 79.015625 C-21.21439392 78.07382385 -21.25691284 77.13202271 -21.30072021 76.16168213 C-21.45148898 69.62871769 -21.45148898 69.62871769 -19.11425781 66.37402344 C-17 65 -17 65 -15 65 C-15 53.78 -15 42.56 -15 31 C-15.66 30.67 -16.32 30.34 -17 30 C-17.495 20.1 -17.495 20.1 -18 10 C-19.32 10.33 -20.64 10.66 -22 11 C-22.6837045 12.32467746 -23.34964186 13.65863633 -24 15 C-27.01761688 17.32124376 -30.28979744 17.41188886 -34.03125 17.328125 C-37.14316604 16.80947233 -38.85067869 15.21445226 -41 13 C-42.60216579 9.79566842 -42.34704259 6.48377373 -42 3 C-41 0.0625 -41 0.0625 -39 -2 C-34.57253951 -2.99974914 -30.32556568 -3.68216443 -26 -2 C-22 2.21621622 -22 2.21621622 -22 5 C-19.58414426 4.96906827 -19.58414426 4.96906827 -17 4 C-16.54625 3.030625 -16.0925 2.06125 -15.625 1.0625 C-14 -2 -14 -2 -10.75 -3.625 C-5.63782807 -4.13621719 -4.08638735 -3.0447592 0 0 Z " fill="#252528" transform="translate(131,12)"/>
<path d="M0 0 C0.99 0.33 1.98 0.66 3 1 C2.67314209 1.51425537 2.34628418 2.02851074 2.00952148 2.55834961 C-0.02131882 7.47018367 0.84079465 13.13554686 1.00170898 18.3815918 C1.06239488 20.5587289 1.08554773 22.73428052 1.10742188 24.91210938 C1.1435304 26.29693696 1.18186629 27.68170865 1.22265625 29.06640625 C1.25109619 30.32396729 1.27953613 31.58152832 1.30883789 32.87719727 C1.53692139 33.90772217 1.76500488 34.93824707 2 36 C3.24644287 36.7110791 3.24644287 36.7110791 4.51806641 37.43652344 C5.33710449 37.9524707 6.15614258 38.46841797 7 39 C7.45571003 41.85284279 7.58612807 44.10516971 7.48828125 46.94921875 C7.48120651 47.72183548 7.47413177 48.49445221 7.46684265 49.29048157 C7.43886255 51.75714142 7.37612407 54.22152704 7.3125 56.6875 C7.2874215 58.35999324 7.26460754 60.03252209 7.24414062 61.70507812 C7.19327354 65.8049652 7.0954489 69.8999395 7 74 C16.9 74 26.8 74 37 74 C37 74.33 37 74.66 37 75 C26.77 75 16.54 75 6 75 C5.67 63.78 5.34 52.56 5 41 C4.67 52.22 4.34 63.44 4 75 C-0.62 75.33 -5.24 75.66 -10 76 C-10.2475 78.165625 -10.2475 78.165625 -10.5 80.375 C-10.63921875 81.59316406 -10.63921875 81.59316406 -10.78125 82.8359375 C-11.03352351 84.96912825 -11.03352351 84.96912825 -11 87 C-11 91.33333333 -11 95.66666667 -11 100 C-13.64 100.33 -16.28 100.66 -19 101 C-19 101.99 -19 102.98 -19 104 C-19.99 103.67 -20.98 103.34 -22 103 C-22 102.01 -22 101.02 -22 100 C-34.54 100 -47.08 100 -60 100 C-60 99.67 -60 99.34 -60 99 C-47.79 98.67 -35.58 98.34 -23 98 C-34.42825241 97.75036678 -34.42825241 97.75036678 -45.85693359 97.52197266 C-47.28745408 97.48677393 -48.71795708 97.45085348 -50.1484375 97.4140625 C-50.89391846 97.40270264 -51.63939941 97.39134277 -52.4074707 97.37963867 C-57.7718564 97.2281436 -57.7718564 97.2281436 -60 95 C-57.92315014 95 -55.84628089 95.01133491 -53.76953125 95.03173828 C-50.26853046 95.06586699 -46.76770394 95.0907941 -43.26660156 95.10986328 C-41.7555057 95.11995462 -40.24442951 95.13362672 -38.73339844 95.15087891 C-36.5513838 95.17512351 -34.36962465 95.1864771 -32.1875 95.1953125 C-30.22876953 95.21102295 -30.22876953 95.21102295 -28.23046875 95.22705078 C-24.8496441 95.25726211 -24.8496441 95.25726211 -22 93 C-22.94842773 93.0407666 -23.89685547 93.0815332 -24.87402344 93.12353516 C-28.39982487 93.26997557 -31.92572888 93.40678188 -35.45214844 93.53710938 C-36.9770401 93.59543502 -38.50179094 93.65757438 -40.02636719 93.72363281 C-42.22044224 93.81803239 -44.41466149 93.89861231 -46.609375 93.9765625 C-47.2886908 94.00875885 -47.96800659 94.0409552 -48.66790771 94.0741272 C-52.66800241 94.20013276 -54.27702464 93.86148768 -58 92 C-46.45 92 -34.9 92 -23 92 C-23 91.01 -23 90.02 -23 89 C-34.22 89 -45.44 89 -57 89 C-57 88.34 -57 87.68 -57 87 C-40.665 87.495 -40.665 87.495 -24 88 C-23.34 86.35 -22.68 84.7 -22 83 C-19.69 83 -17.38 83 -15 83 C-15 69.14 -15 55.28 -15 41 C-13.35 40.34 -11.7 39.68 -10 39 C-8.41769192 35.83538385 -8.75842187 32.40920633 -8.68359375 28.9296875 C-8.66281265 28.13345978 -8.64203156 27.33723206 -8.62062073 26.51687622 C-8.55515851 23.96967315 -8.49625585 21.42236575 -8.4375 18.875 C-8.3943116 17.14972873 -8.35069721 15.42446807 -8.30664062 13.69921875 C-8.19948055 9.46625315 -8.09820377 5.23318247 -8 1 C-5.51639559 4.72540662 -5.7684133 6.63062973 -5.8046875 11.07421875 C-5.8075174 11.7580513 -5.81034729 12.44188385 -5.81326294 13.1464386 C-5.82444316 15.32697165 -5.84954309 17.50709145 -5.875 19.6875 C-5.88503262 21.16731177 -5.89415798 22.64712999 -5.90234375 24.12695312 C-5.92437519 27.751436 -5.95888998 31.37567766 -6 35 C-5.34 35 -4.68 35 -4 35 C-4 23.78 -4 12.56 -4 1 C-3.01 1 -2.02 1 -1 1 C-0.67 0.67 -0.34 0.34 0 0 Z M-23 86 C-22 88 -22 88 -22 88 Z " fill="#ACADB0" transform="translate(129,41)"/>
<path d="M0 0 C11.22 0 22.44 0 34 0 C33.34 0.66 32.68 1.32 32 2 C31.83312552 4.58354218 31.83312552 4.58354218 32 7 C32.66 7 33.32 7 34 7 C34 5.35 34 3.7 34 2 C35.65 1.67 37.3 1.34 39 1 C39 1.66 39 2.32 39 3 C38.34 3 37.68 3 37 3 C37 3.99 37 4.98 37 6 C38.32 6.33 39.64 6.66 41 7 C41.82999277 11.61107097 42.27063164 15.44690328 41 20 C37.4513865 22.36574234 36.4235475 22.10865265 32.3125 21.625 C30.82169922 21.45871094 30.82169922 21.45871094 29.30078125 21.2890625 C28.54152344 21.19367188 27.78226563 21.09828125 27 21 C26.67 22.65 26.34 24.3 26 26 C25.01 26 24.02 26 23 26 C23 26.66 23 27.32 23 28 C34.22 28 45.44 28 57 28 C57 28.99 57 29.98 57 31 C44 31 31 31 18 31 C18.66 32.32 19.32 33.64 20 35 C32.54 35.33 45.08 35.66 58 36 C57.505 36.99 57.505 36.99 57 38 C51.53743725 38.12381149 46.07569512 38.21443826 40.61206055 38.2746582 C38.75449391 38.29976702 36.89702573 38.33386134 35.03979492 38.37719727 C32.36612642 38.43801124 29.69376635 38.4662452 27.01953125 38.48828125 C25.7786248 38.52699089 25.7786248 38.52699089 24.51264954 38.56648254 C20.17651642 38.56858082 18.52523971 38.4152311 15.0065918 35.63354492 C13.07528864 33.09881233 12.09178691 30.96342161 11 28 C10.484375 27.484375 9.96875 26.96875 9.4375 26.4375 C7.70553268 24.70553268 7.41012318 23.37871446 7 21 C5.7625 21.20625 4.525 21.4125 3.25 21.625 C-0.20319878 22.20053313 -1.98029681 21.78189692 -5 20 C-4.91621094 19.37351562 -4.83242188 18.74703125 -4.74609375 18.1015625 C-4.64425781 17.28429687 -4.54242188 16.46703125 -4.4375 15.625 C-4.33308594 14.81289062 -4.22867188 14.00078125 -4.12109375 13.1640625 C-3.81762672 10.95100814 -3.81762672 10.95100814 -5 9 C-3.68 8.34 -2.36 7.68 -1 7 C-1.33 8.65 -1.66 10.3 -2 12 C11.2 12 24.4 12 38 12 C37.505 11.01 37.505 11.01 37 10 C18.685 9.505 18.685 9.505 0 9 C0.99 8.34 1.98 7.68 3 7 C3.72965366 4.43717258 3.72965366 4.43717258 4 2 C2.68 1.34 1.36 0.68 0 0 Z M12 5 C13.05978933 6.28612676 13.05978933 6.28612676 15.50390625 6.09765625 C16.51324219 6.08605469 17.52257812 6.07445313 18.5625 6.0625 C19.57441406 6.05347656 20.58632812 6.04445313 21.62890625 6.03515625 C22.41136719 6.02355469 23.19382812 6.01195313 24 6 C24.33 5.01 24.66 4.02 25 3 C23.20866022 2.94608007 21.41686101 2.90724429 19.625 2.875 C18.62726563 2.85179688 17.62953125 2.82859375 16.6015625 2.8046875 C13.83737827 2.72783152 13.83737827 2.72783152 12 5 Z M16 21 C17 23 17 23 17 23 Z M18 21 C18.33 21.66 18.66 22.32 19 23 C19.99 23 20.98 23 22 23 C22 22.34 22 21.68 22 21 C20.68 21 19.36 21 18 21 Z " fill="#454646" transform="translate(49,102)"/>
<path d="M0 0 C14.85 0 29.7 0 45 0 C45 9 45 9 44 20 C29.15 20 14.3 20 -1 20 C-1 7 -1 7 0 0 Z " fill="#476CB3" transform="translate(45,63)"/>
<path d="M0 0 C1.32 0 2.64 0 4 0 C4.33 11.55 4.66 23.1 5 35 C11.93 35.495 11.93 35.495 19 36 C19.06058594 38.20300781 19.12117188 40.40601563 19.18359375 42.67578125 C19.24541059 44.81049946 19.30878689 46.94516608 19.37231445 49.07983398 C19.4156133 50.56286015 19.45729199 52.04593454 19.49731445 53.52905273 C19.55513958 55.66144339 19.61879832 57.79359242 19.68359375 59.92578125 C19.72025146 61.20880127 19.75690918 62.49182129 19.79467773 63.8137207 C19.86561234 67.02111551 19.86561234 67.02111551 21 70 C18.65147472 71.17426264 17.26225935 71.11508173 14.6484375 71.09765625 C13.79765625 71.09443359 12.946875 71.09121094 12.0703125 71.08789062 C11.18085937 71.07951172 10.29140625 71.07113281 9.375 71.0625 C8.4778125 71.05798828 7.580625 71.05347656 6.65625 71.04882812 C4.43743352 71.03702591 2.21874982 71.02056155 0 71 C0 70.67 0 70.34 0 70 C5.61 70 11.22 70 17 70 C17 69.34 17 68.68 17 68 C11.39 67.67 5.78 67.34 0 67 C0 44.89 0 22.78 0 0 Z " fill="#A5A6A9" transform="translate(114,144)"/>
<path d="M0 0 C0.515625 0.53625 1.03125 1.0725 1.5625 1.625 C-1.4075 1.625 -4.3775 1.625 -7.4375 1.625 C-6.7775 2.285 -6.1175 2.945 -5.4375 3.625 C-4.633125 3.604375 -3.82875 3.58375 -3 3.5625 C-0.4375 3.625 -0.4375 3.625 1.2043457 4.79614258 C3.04724844 7.27775042 2.90634724 8.87954996 2.85546875 11.94921875 C2.8409668 13.49125977 2.8409668 13.49125977 2.82617188 15.06445312 C2.80103516 16.13630859 2.77589844 17.20816406 2.75 18.3125 C2.72969727 19.93768555 2.72969727 19.93768555 2.70898438 21.59570312 C2.67361023 24.27234704 2.61980304 26.94873575 2.5625 29.625 C-1.3975 29.625 -5.3575 29.625 -9.4375 29.625 C-9.4375 24.675 -9.4375 19.725 -9.4375 14.625 C-10.0975 14.625 -10.7575 14.625 -11.4375 14.625 C-11.4375 20.235 -11.4375 25.845 -11.4375 31.625 C-10.7775 31.955 -10.1175 32.285 -9.4375 32.625 C-10.4275 32.625 -11.4175 32.625 -12.4375 32.625 C-12.9325 22.725 -12.9325 22.725 -13.4375 12.625 C-14.7575 12.955 -16.0775 13.285 -17.4375 13.625 C-18.1212045 14.94967746 -18.78714186 16.28363633 -19.4375 17.625 C-22.45511688 19.94624376 -25.72729744 20.03688886 -29.46875 19.953125 C-32.58066604 19.43447233 -34.28817869 17.83945226 -36.4375 15.625 C-38.03966579 12.42066842 -37.78454259 9.10877373 -37.4375 5.625 C-36.4375 2.6875 -36.4375 2.6875 -34.4375 0.625 C-30.01003951 -0.37474914 -25.76306568 -1.05716443 -21.4375 0.625 C-17.4375 4.84121622 -17.4375 4.84121622 -17.4375 7.625 C-15.02164426 7.59406827 -15.02164426 7.59406827 -12.4375 6.625 C-11.98375 5.655625 -11.53 4.68625 -11.0625 3.6875 C-9.4375 0.625 -9.4375 0.625 -6 -0.9375 C-2.4375 -1.375 -2.4375 -1.375 0 0 Z " fill="#343742" transform="translate(126.4375,9.375)"/>
<path d="M0 0 C0.33 0 0.66 0 1 0 C1.20047521 7.60590628 1.38416185 15.21206208 1.54658794 22.81887341 C1.62253837 26.35127033 1.70420559 29.88333966 1.79907227 33.4152832 C1.907953 37.47840963 1.99172372 41.54172035 2.07421875 45.60546875 C2.11157639 46.8702153 2.14893402 48.13496185 2.18742371 49.43803406 C2.20767105 50.61888077 2.2279184 51.79972748 2.2487793 53.01635742 C2.27320602 54.05338303 2.29763275 55.09040863 2.32279968 56.15885925 C1.94317834 59.50011928 1.04639989 61.34765779 -1 64 C-4.00268555 64.65942383 -4.00268555 64.65942383 -7.63671875 64.70703125 C-8.80678467 64.73514893 -9.97685059 64.7632666 -11.18237305 64.79223633 C-12.66906494 64.79892334 -14.15575684 64.80561035 -15.6875 64.8125 C-20.410625 64.874375 -25.13375 64.93625 -30 65 C-30.33 74.9 -30.66 84.8 -31 95 C-31.33 95 -31.66 95 -32 95 C-32 84.44 -32 73.88 -32 63 C-22.76 62.34 -13.52 61.68 -4 61 C-23.8 60.505 -23.8 60.505 -44 60 C-44 59.67 -44 59.34 -44 59 C-30.8 59 -17.6 59 -4 59 C-4 40.52 -4 22.04 -4 3 C-17.53 3 -31.06 3 -45 3 C-44.67 9.93 -44.34 16.86 -44 24 C-41.69 23.34 -39.38 22.68 -37 22 C-36.01 22.66 -35.02 23.32 -34 24 C-33.70703125 27.2578125 -33.70703125 27.2578125 -33.8125 31.125 C-33.83957031 32.40632813 -33.86664063 33.68765625 -33.89453125 35.0078125 C-33.92933594 35.99523437 -33.96414062 36.98265625 -34 38 C-37.21639654 39.74565111 -39.32013404 40.204437 -43 40 C-43 39.34 -43 38.68 -43 38 C-43.66 38 -44.32 38 -45 38 C-45 45.26 -45 52.52 -45 60 C-45.33 60 -45.66 60 -46 60 C-46 40.86 -46 21.72 -46 2 C-31.15 2 -16.3 2 -1 2 C-0.67 1.34 -0.34 0.68 0 0 Z " fill="#D3D3D3" transform="translate(167,117)"/>
<path d="M0 0 C11.22 0 22.44 0 34 0 C33.34 0.66 32.68 1.32 32 2 C31.83312552 4.58354218 31.83312552 4.58354218 32 7 C32.66 7 33.32 7 34 7 C34 5.35 34 3.7 34 2 C35.65 1.67 37.3 1.34 39 1 C39 1.66 39 2.32 39 3 C38.34 3 37.68 3 37 3 C37 3.99 37 4.98 37 6 C38.32 6.33 39.64 6.66 41 7 C41.125 12.75 41.125 12.75 40 15 C26.14 15 12.28 15 -2 15 C-2 15.99 -2 16.98 -2 18 C11.2 18 24.4 18 38 18 C38.495 18.99 38.495 18.99 39 20 C38.09636719 20.03738281 37.19273438 20.07476562 36.26171875 20.11328125 C35.08222656 20.17902344 33.90273437 20.24476562 32.6875 20.3125 C31.51574219 20.37050781 30.34398437 20.42851563 29.13671875 20.48828125 C25.9016314 21.01604768 24.91315119 21.42380724 23 24 C23 22.68 23 21.36 23 20 C21.3739713 20.06000106 19.74898451 20.1487885 18.125 20.25 C17.22007813 20.29640625 16.31515625 20.3428125 15.3828125 20.390625 C12.82889456 20.75611148 12.82889456 20.75611148 11.6796875 23.046875 C11.34324219 24.01367188 11.34324219 24.01367188 11 25 C10.67 25 10.34 25 10 25 C10 23.35 10 21.7 10 20 C8.62714844 20.01740234 8.62714844 20.01740234 7.2265625 20.03515625 C5.44378906 20.04869141 5.44378906 20.04869141 3.625 20.0625 C2.44164062 20.07410156 1.25828125 20.08570312 0.0390625 20.09765625 C-3 20 -3 20 -5 19 C-4.70703125 16.98177083 -4.4140625 14.96354167 -4.12109375 12.9453125 C-3.8315703 10.91859333 -3.8315703 10.91859333 -5 9 C-3.68 8.34 -2.36 7.68 -1 7 C-1.33 8.65 -1.66 10.3 -2 12 C11.2 12 24.4 12 38 12 C37.505 11.01 37.505 11.01 37 10 C18.685 9.505 18.685 9.505 0 9 C0.99 8.34 1.98 7.68 3 7 C3.72965366 4.43717258 3.72965366 4.43717258 4 2 C2.68 1.34 1.36 0.68 0 0 Z M12 5 C13.05978933 6.28612676 13.05978933 6.28612676 15.50390625 6.09765625 C16.51324219 6.08605469 17.52257812 6.07445313 18.5625 6.0625 C19.57441406 6.05347656 20.58632812 6.04445313 21.62890625 6.03515625 C22.41136719 6.02355469 23.19382812 6.01195313 24 6 C24.33 5.01 24.66 4.02 25 3 C23.20866022 2.94608007 21.41686101 2.90724429 19.625 2.875 C18.62726563 2.85179688 17.62953125 2.82859375 16.6015625 2.8046875 C13.83737827 2.72783152 13.83737827 2.72783152 12 5 Z " fill="#1E1F26" transform="translate(49,102)"/>
<path d="M0 0 C2.31 0 4.62 0 7 0 C7.02687279 1.81242052 7.04633715 3.62495233 7.0625 5.4375 C7.07410156 6.44683594 7.08570313 7.45617187 7.09765625 8.49609375 C7 11 7 11 6 12 C25.305 12.495 25.305 12.495 45 13 C45 13.99 45 14.98 45 16 C45.99 16 46.98 16 48 16 C47.505 13.525 47.505 13.525 47 11 C47.66 11.33 48.32 11.66 49 12 C49 13.65 49 15.3 49 17 C46 18 46 18 42 18 C41.505 20.475 41.505 20.475 41 23 C40.34 23 39.68 23 39 23 C38.505 20.03 38.505 20.03 38 17 C33.87501462 16.97107615 29.75005515 16.95322733 25.625 16.9375 C24.449375 16.92912109 23.27375 16.92074219 22.0625 16.91210938 C20.94101562 16.90888672 19.81953125 16.90566406 18.6640625 16.90234375 C17.62717285 16.89710693 16.5902832 16.89187012 15.52197266 16.88647461 C13.0040332 16.82859185 13.0040332 16.82859185 11 18 C11.020625 18.804375 11.04125 19.60875 11.0625 20.4375 C11 23 11 23 10 24 C21.22 24.33 32.44 24.66 44 25 C44.495 26.485 44.495 26.485 45 28 C31.8 28 18.6 28 5 28 C5 26.68 5 25.36 5 24 C4.34 24.66 3.68 25.32 3 26 C3.33 26.99 3.66 27.98 4 29 C3.0625 31.6875 3.0625 31.6875 2 34 C1.34 33.67 0.68 33.34 0 33 C0.165 32.484375 0.33 31.96875 0.5 31.4375 C1.15049 28.26636124 1.0620734 25.22781666 1 22 C2.32 21.34 3.64 20.68 5 20 C4.34 20 3.68 20 3 20 C3 19.34 3 18.68 3 18 C2.34 17.67 1.68 17.34 1 17 C1 15.02 1 13.04 1 11 C1.66 10.67 2.32 10.34 3 10 C5.12508244 6.81237635 5.5020163 4.73487777 6 1 C4.02 1 2.04 1 0 1 C0 0.67 0 0.34 0 0 Z " fill="#3F4B65" transform="translate(42,86)"/>
<path d="M0 0 C0.33 0 0.66 0 1 0 C1 14.19 1 28.38 1 43 C1.99 43.33 2.98 43.66 4 44 C4 49 4 54 4 59 C1.36 59.33 -1.28 59.66 -4 60 C-4 60.99 -4 61.98 -4 63 C-4.99 62.67 -5.98 62.34 -7 62 C-7 61.01 -7 60.02 -7 59 C-19.54 59 -32.08 59 -45 59 C-45 58.67 -45 58.34 -45 58 C-32.79 57.67 -20.58 57.34 -8 57 C-19.42825241 56.75036678 -19.42825241 56.75036678 -30.85693359 56.52197266 C-32.28745408 56.48677393 -33.71795708 56.45085348 -35.1484375 56.4140625 C-35.89391846 56.40270264 -36.63939941 56.39134277 -37.4074707 56.37963867 C-42.7718564 56.2281436 -42.7718564 56.2281436 -45 54 C-42.92315014 54 -40.84628089 54.01133491 -38.76953125 54.03173828 C-35.26853046 54.06586699 -31.76770394 54.0907941 -28.26660156 54.10986328 C-26.7555057 54.11995462 -25.24442951 54.13362672 -23.73339844 54.15087891 C-21.5513838 54.17512351 -19.36962465 54.1864771 -17.1875 54.1953125 C-15.22876953 54.21102295 -15.22876953 54.21102295 -13.23046875 54.22705078 C-9.8496441 54.25726211 -9.8496441 54.25726211 -7 52 C-7.94842773 52.0407666 -8.89685547 52.0815332 -9.87402344 52.12353516 C-13.39982487 52.26997557 -16.92572888 52.40678188 -20.45214844 52.53710938 C-21.9770401 52.59543502 -23.50179094 52.65757438 -25.02636719 52.72363281 C-27.22044224 52.81803239 -29.41466149 52.89861231 -31.609375 52.9765625 C-32.62834869 53.02485703 -32.62834869 53.02485703 -33.66790771 53.0741272 C-37.66800241 53.20013276 -39.27702464 52.86148768 -43 51 C-31.45 51 -19.9 51 -8 51 C-8 50.01 -8 49.02 -8 48 C-19.22 48 -30.44 48 -42 48 C-42 47.34 -42 46.68 -42 46 C-25.665 46.495 -25.665 46.495 -9 47 C-8.34 45.35 -7.68 43.7 -7 42 C-4.69 42 -2.38 42 0 42 C0 28.14 0 14.28 0 0 Z M-8 45 C-7 47 -7 47 -7 47 Z " fill="#8B8B8C" transform="translate(114,82)"/>
<path d="M0 0 C3.55714183 3.17049598 4.70440184 5.00887675 6.0625 9.5625 C5.98545198 13.80014117 4.99583794 15.08737978 2 18 C-1.68814773 20.45876515 -4.716843 20.6943399 -9 20 C-12.27981751 17.93228896 -13.84746007 16.22880989 -16 13 C-16.99 13.66 -17.98 14.32 -19 15 C-19.38384509 17.93597539 -19.603843 20.68027373 -19.6875 23.625 C-19.72166016 24.42679688 -19.75582031 25.22859375 -19.79101562 26.0546875 C-19.87356878 28.03596318 -19.93845916 30.01796037 -20 32 C-20.33 32 -20.66 32 -21 32 C-21.33 26.06 -21.66 20.12 -22 14 C-22.33 14 -22.66 14 -23 14 C-23 11.03 -23 8.06 -23 5 C-22.34 5 -21.68 5 -21 5 C-20.67 5.66 -20.34 6.32 -20 7 C-18.02 7 -16.04 7 -14 7 C-13.67 5.35 -13.34 3.7 -13 2 C-8.50793282 0.24699817 -4.81477459 -0.70033085 0 0 Z " fill="#252830" transform="translate(153,9)"/>
<path d="M0 0 C0.99 0.33 1.98 0.66 3 1 C2.67314209 1.51425537 2.34628418 2.02851074 2.00952148 2.55834961 C-0.02131882 7.47018367 0.84079465 13.13554686 1.00170898 18.3815918 C1.06239488 20.5587289 1.08554773 22.73428052 1.10742188 24.91210938 C1.1435304 26.29693696 1.18186629 27.68170865 1.22265625 29.06640625 C1.25109619 30.32396729 1.27953613 31.58152832 1.30883789 32.87719727 C1.53692139 33.90772217 1.76500488 34.93824707 2 36 C2.83096191 36.47405273 3.66192383 36.94810547 4.51806641 37.43652344 C5.74662354 38.21044434 5.74662354 38.21044434 7 39 C7.45571003 41.85284279 7.58612807 44.10516971 7.48828125 46.94921875 C7.48120651 47.72183548 7.47413177 48.49445221 7.46684265 49.29048157 C7.43886255 51.75714142 7.37612407 54.22152704 7.3125 56.6875 C7.2874215 58.35999324 7.26460754 60.03252209 7.24414062 61.70507812 C7.19327354 65.8049652 7.0954489 69.8999395 7 74 C16.9 74 26.8 74 37 74 C37 74.33 37 74.66 37 75 C26.77 75 16.54 75 6 75 C5.67 63.78 5.34 52.56 5 41 C4.67 52.22 4.34 63.44 4 75 C3.67 75 3.34 75 3 75 C3 63.78 3 52.56 3 41 C-2.61 41 -8.22 41 -14 41 C-12.68 40.34 -11.36 39.68 -10 39 C-8.41769192 35.83538385 -8.75842187 32.40920633 -8.68359375 28.9296875 C-8.66281265 28.13345978 -8.64203156 27.33723206 -8.62062073 26.51687622 C-8.55515851 23.96967315 -8.49625585 21.42236575 -8.4375 18.875 C-8.3943116 17.14972873 -8.35069721 15.42446807 -8.30664062 13.69921875 C-8.19948055 9.46625315 -8.09820377 5.23318247 -8 1 C-5.51639559 4.72540662 -5.7684133 6.63062973 -5.8046875 11.07421875 C-5.8075174 11.7580513 -5.81034729 12.44188385 -5.81326294 13.1464386 C-5.82444316 15.32697165 -5.84954309 17.50709145 -5.875 19.6875 C-5.88503262 21.16731177 -5.89415798 22.64712999 -5.90234375 24.12695312 C-5.92437519 27.751436 -5.95888998 31.37567766 -6 35 C-5.34 35 -4.68 35 -4 35 C-4 23.78 -4 12.56 -4 1 C-3.01 1 -2.02 1 -1 1 C-0.67 0.67 -0.34 0.34 0 0 Z " fill="#727272" transform="translate(129,41)"/>
<path d="M0 0 C0.515625 0.53625 1.03125 1.0725 1.5625 1.625 C-1.4075 1.625 -4.3775 1.625 -7.4375 1.625 C-6.7775 2.285 -6.1175 2.945 -5.4375 3.625 C-4.633125 3.604375 -3.82875 3.58375 -3 3.5625 C-0.4375 3.625 -0.4375 3.625 1.2043457 4.79614258 C3.04724844 7.27775042 2.90634724 8.87954996 2.85546875 11.94921875 C2.84580078 12.97724609 2.83613281 14.00527344 2.82617188 15.06445312 C2.80103516 16.13630859 2.77589844 17.20816406 2.75 18.3125 C2.73646484 19.39595703 2.72292969 20.47941406 2.70898438 21.59570312 C2.67361023 24.27234704 2.61980304 26.94873575 2.5625 29.625 C-1.0675 29.625 -4.6975 29.625 -8.4375 29.625 C-8.7675 21.375 -9.0975 13.125 -9.4375 4.625 C-10.4275 5.12 -10.4275 5.12 -11.4375 5.625 C-10.875 3.25 -10.875 3.25 -9.4375 0.625 C-3.53919492 -1.99646893 -3.53919492 -1.99646893 0 0 Z " fill="#476CB5" transform="translate(126.4375,9.375)"/>
<path d="M0 0 C0.33 0 0.66 0 1 0 C1.20047521 7.60590628 1.38416185 15.21206208 1.54658794 22.81887341 C1.62253837 26.35127033 1.70420559 29.88333966 1.79907227 33.4152832 C1.907953 37.47840963 1.99172372 41.54172035 2.07421875 45.60546875 C2.11157639 46.8702153 2.14893402 48.13496185 2.18742371 49.43803406 C2.20767105 50.61888077 2.2279184 51.79972748 2.2487793 53.01635742 C2.27320602 54.05338303 2.29763275 55.09040863 2.32279968 56.15885925 C1.94317834 59.50011928 1.04639989 61.34765779 -1 64 C-4.00268555 64.65942383 -4.00268555 64.65942383 -7.63671875 64.70703125 C-8.80678467 64.73514893 -9.97685059 64.7632666 -11.18237305 64.79223633 C-12.66906494 64.79892334 -14.15575684 64.80561035 -15.6875 64.8125 C-20.410625 64.874375 -25.13375 64.93625 -30 65 C-30.33 74.9 -30.66 84.8 -31 95 C-31.33 95 -31.66 95 -32 95 C-32 84.44 -32 73.88 -32 63 C-22.76 62.34 -13.52 61.68 -4 61 C-3.67 41.53 -3.34 22.06 -3 2 C-2.34 2 -1.68 2 -1 2 C-0.67 1.34 -0.34 0.68 0 0 Z " fill="#656565" transform="translate(167,117)"/>
<path d="M0 0 C0.33 0 0.66 0 1 0 C1 11.55 1 23.1 1 35 C11.56 35 22.12 35 33 35 C32.67 54.8 32.34 74.6 32 95 C31.67 95 31.34 95 31 95 C31 76.19 31 57.38 31 38 C16.48 38 1.96 38 -13 38 C-13.33 38.99 -13.66 39.98 -14 41 C-14.33 41 -14.66 41 -15 41 C-15 39.02 -15 37.04 -15 35 C-10.38 35 -5.76 35 -1 35 C-1.00523682 33.97527588 -1.01047363 32.95055176 -1.01586914 31.89477539 C-1.03391969 28.10604724 -1.0454322 24.31732291 -1.05493164 20.52856445 C-1.05997174 18.88630536 -1.06680378 17.24405077 -1.07543945 15.60180664 C-1.08751926 13.24624521 -1.09323139 10.89074291 -1.09765625 8.53515625 C-1.10281754 7.79660904 -1.10797882 7.05806183 -1.11329651 6.2971344 C-1.1134925 4.53101912 -1.06194719 2.76502854 -1 1 C-0.67 0.67 -0.34 0.34 0 0 Z " fill="#040505" transform="translate(134,81)"/>
<path d="M0 0 C0.33 0 0.66 0 1 0 C1.0272415 1.41655793 1.04650467 2.83327045 1.0625 4.25 C1.07410156 5.03890625 1.08570313 5.8278125 1.09765625 6.640625 C1.00385306 8.90691002 0.63241063 10.8288895 0 13 C-1.98 13 -3.96 13 -6 13 C-6 16.3 -6 19.6 -6 23 C-4.68 23 -3.36 23 -2 23 C-1.505 25.97 -1.505 25.97 -1 29 C-1.99 29 -2.98 29 -4 29 C-4 28.01 -4 27.02 -4 26 C-17.2 26 -30.4 26 -44 26 C-43.67 25.34 -43.34 24.68 -43 24 C-42.7724985 22.12943209 -42.59037189 20.25314042 -42.4375 18.375 C-42.31181641 16.87066406 -42.31181641 16.87066406 -42.18359375 15.3359375 C-42.12300781 14.56507812 -42.06242187 13.79421875 -42 13 C-42.99 12.67 -43.98 12.34 -45 12 C-42.525 12.495 -42.525 12.495 -40 13 C-40 16.3 -40 19.6 -40 23 C-29.77 23 -19.54 23 -9 23 C-9.33 19.7 -9.66 16.4 -10 13 C-18.25 12.67 -26.5 12.34 -35 12 C-35 11.67 -35 11.34 -35 11 C-24.44 10.67 -13.88 10.34 -3 10 C-2.01 6.7 -1.02 3.4 0 0 Z " fill="#0F0F12" transform="translate(91,73)"/>
<path d="M0 0 C-0.33 1.32 -0.66 2.64 -1 4 C-26.245 4.495 -26.245 4.495 -52 5 C-52.33 7.31 -52.66 9.62 -53 12 C-53.33 12 -53.66 12 -54 12 C-54 8.04 -54 4.08 -54 0 C-46.79188318 -0.16747166 -39.58365858 -0.32804648 -32.37524414 -0.48217773 C-29.92207688 -0.53560984 -27.4689502 -0.59094012 -25.01586914 -0.64819336 C-21.49374139 -0.73007019 -17.97152499 -0.80516217 -14.44921875 -0.87890625 C-13.34913986 -0.90594131 -12.24906097 -0.93297638 -11.11564636 -0.96083069 C-10.09481461 -0.98092697 -9.07398285 -1.00102325 -8.0222168 -1.02172852 C-7.12286911 -1.04171402 -6.22352142 -1.06169952 -5.29692078 -1.08229065 C-3 -1 -3 -1 0 0 Z " fill="#3C3C44" transform="translate(94,58)"/>
<path d="M0 0 C0.99 0.495 0.99 0.495 2 1 C2 6.94 2 12.88 2 19 C16.19 19 30.38 19 45 19 C42.28336207 21.71663793 40.69805347 21.30753121 36.8984375 21.4140625 C35.80708496 21.44967285 34.71573242 21.4852832 33.59130859 21.52197266 C32.19992676 21.55597168 30.80854492 21.5899707 29.375 21.625 C24.96125 21.74875 20.5475 21.8725 16 22 C16 32.56 16 43.12 16 54 C15.34 53.67 14.68 53.34 14 53 C14 42.77 14 32.54 14 22 C9.38 22 4.76 22 0 22 C0 14.74 0 7.48 0 0 Z " fill="#020203" transform="translate(119,158)"/>
<path d="M0 0 C0.33 0.66 0.66 1.32 1 2 C0.67 2.99 0.34 3.98 0 5 C11.55 5 23.1 5 35 5 C35 5.33 35 5.66 35 6 C33.02 6.33 31.04 6.66 29 7 C29 7.33 29 7.66 29 8 C19.43 8 9.86 8 0 8 C0 8.99 0 9.98 0 11 C13.2 11 26.4 11 40 11 C40.495 11.99 40.495 11.99 41 13 C39.64455078 13.05607422 39.64455078 13.05607422 38.26171875 13.11328125 C37.08222656 13.17902344 35.90273437 13.24476562 34.6875 13.3125 C33.51574219 13.37050781 32.34398437 13.42851563 31.13671875 13.48828125 C27.9016314 14.01604768 26.91315119 14.42380724 25 17 C25 15.68 25 14.36 25 13 C23.3739713 13.06000106 21.74898451 13.1487885 20.125 13.25 C19.22007813 13.29640625 18.31515625 13.3428125 17.3828125 13.390625 C14.82889456 13.75611148 14.82889456 13.75611148 13.6796875 16.046875 C13.34324219 17.01367188 13.34324219 17.01367188 13 18 C12.67 18 12.34 18 12 18 C12 16.35 12 14.7 12 13 C10.62714844 13.01740234 10.62714844 13.01740234 9.2265625 13.03515625 C7.44378906 13.04869141 7.44378906 13.04869141 5.625 13.0625 C4.44164062 13.07410156 3.25828125 13.08570312 2.0390625 13.09765625 C-1 13 -1 13 -3 12 C-2.70703125 9.98177083 -2.4140625 7.96354167 -2.12109375 5.9453125 C-1.8315703 3.91859333 -1.8315703 3.91859333 -3 2 C-2.01 1.34 -1.02 0.68 0 0 Z " fill="#01061A" transform="translate(47,109)"/>
<path d="M0 0 C0.66 1.32 1.32 2.64 2 4 C2.33 3.67 2.66 3.34 3 3 C4.58488936 2.8876975 6.17465375 2.84324933 7.76342773 2.82641602 C9.28521889 2.80618126 9.28521889 2.80618126 10.8377533 2.78553772 C12.49394432 2.76988014 12.49394432 2.76988014 14.18359375 2.75390625 C16.49544658 2.72097358 18.80729544 2.68776184 21.11914062 2.65429688 C24.78423375 2.60680054 28.44931013 2.56237375 32.11450195 2.52319336 C35.6377048 2.48361746 39.16057306 2.43204085 42.68359375 2.37890625 C43.78569687 2.3704921 44.88779999 2.36207794 46.02330017 2.35340881 C47.04097977 2.33676682 48.05865936 2.32012482 49.10717773 2.30297852 C50.00572983 2.29267105 50.90428192 2.28236359 51.83006287 2.27174377 C54.21002393 2.19915002 54.21002393 2.19915002 56 0 C55.46839258 9.01470449 54.89495536 18.01236323 54 27 C52.02 27.66 50.04 28.32 48 29 C48 31.64 48 34.28 48 37 C47.34 37 46.68 37 46 37 C46 33.7 46 30.4 46 27 C47.98 27 49.96 27 52 27 C52 24.03 52 21.06 52 18 C51.34 18.99 50.68 19.98 50 21 C50.33 15.39 50.66 9.78 51 4 C36.15 4 21.3 4 6 4 C6 6.31 6 8.62 6 11 C5 13.4375 5 13.4375 4 15 C3.67 14.01 3.34 13.02 3 12 C2.67 13.65 2.34 15.3 2 17 C1.67 17 1.34 17 1 17 C0.86722656 16.09636719 0.73445313 15.19273438 0.59765625 14.26171875 C0.42105469 13.08222656 0.24445312 11.90273437 0.0625 10.6875 C-0.11152344 9.51574219 -0.28554688 8.34398438 -0.46484375 7.13671875 C-0.92093031 3.98358597 -0.92093031 3.98358597 -2 1 C-1.34 0.67 -0.68 0.34 0 0 Z " fill="#4B618E" transform="translate(39,59)"/>
<path d="M0 0 C0 0.33 0 0.66 0 1 C-2.97 1 -5.94 1 -9 1 C-9 1.66 -9 2.32 -9 3 C-7.39125 2.87625 -7.39125 2.87625 -5.75 2.75 C-2 3 -2 3 0.4375 4.6875 C2.30408821 7.45005055 2.58649994 8.73235745 2 12 C0.9375 13.8125 0.9375 13.8125 -1 15 C-4.5 15.4375 -4.5 15.4375 -8 15 C-9.9375 13.3125 -9.9375 13.3125 -11 11 C-11.1875 8.25 -11.1875 8.25 -11 6 C-11.66 6 -12.32 6 -13 6 C-13 8.31 -13 10.62 -13 13 C-13.33 13 -13.66 13 -14 13 C-14.46077348 3.93812155 -14.46077348 3.93812155 -11 0 C-7.16686968 -1.45037364 -3.94720115 -0.82615838 0 0 Z " fill="#516795" transform="translate(103,10)"/>
<path d="M0 0 C0.33 0 0.66 0 1 0 C1.6 7.8 1.6 7.8 -0.3125 11.625 C-4.73870315 13.88956905 -9.21349935 12.75923803 -14 12 C-14.33 13.32 -14.66 14.64 -15 16 C-15 14.35 -15 12.7 -15 11 C-9.06 10.505 -9.06 10.505 -3 10 C-22.8 9.505 -22.8 9.505 -43 9 C-43 8.01 -43 7.02 -43 6 C-29.14 6 -15.28 6 -1 6 C-0.67 4.02 -0.34 2.04 0 0 Z " fill="#4B5D7F" transform="translate(90,111)"/>
<path d="M0 0 C0.515625 0.53625 1.03125 1.0725 1.5625 1.625 C-1.4075 1.625 -4.3775 1.625 -7.4375 1.625 C-6.7775 2.285 -6.1175 2.945 -5.4375 3.625 C-4.633125 3.604375 -3.82875 3.58375 -3 3.5625 C-0.4375 3.625 -0.4375 3.625 1.2043457 4.79614258 C3.04724844 7.27775042 2.90634724 8.87954996 2.85546875 11.94921875 C2.84580078 12.97724609 2.83613281 14.00527344 2.82617188 15.06445312 C2.80103516 16.13630859 2.77589844 17.20816406 2.75 18.3125 C2.73646484 19.39595703 2.72292969 20.47941406 2.70898438 21.59570312 C2.67361023 24.27234704 2.61980304 26.94873575 2.5625 29.625 C-1.0675 29.625 -4.6975 29.625 -8.4375 29.625 C-8.7675 21.375 -9.0975 13.125 -9.4375 4.625 C-10.4275 5.12 -10.4275 5.12 -11.4375 5.625 C-10.875 3.25 -10.875 3.25 -9.4375 0.625 C-3.53919492 -1.99646893 -3.53919492 -1.99646893 0 0 Z M-5.4375 5.625 C-6.5857685 7.921537 -6.55311175 9.20813167 -6.53515625 11.7578125 C-6.53193359 12.56347656 -6.52871094 13.36914062 -6.52539062 14.19921875 C-6.51701172 15.04097656 -6.50863281 15.88273437 -6.5 16.75 C-6.49548828 17.59949219 -6.49097656 18.44898438 -6.48632812 19.32421875 C-6.47452874 21.42450909 -6.45659306 23.5247633 -6.4375 25.625 C-4.1275 25.955 -1.8175 26.285 0.5625 26.625 C1.44527755 22.10684719 1.66839503 17.84987306 1.625 13.25 C1.61146484 11.38214844 1.61146484 11.38214844 1.59765625 9.4765625 C1.58605469 8.53554688 1.57445312 7.59453125 1.5625 6.625 C-0.7475 6.295 -3.0575 5.965 -5.4375 5.625 Z " fill="#4F6799" transform="translate(126.4375,9.375)"/>
<path d="M0 0 C0.29296875 3.2578125 0.29296875 3.2578125 0.1875 7.125 C0.16042969 8.40632812 0.13335937 9.68765625 0.10546875 11.0078125 C0.07066406 11.99523437 0.03585938 12.98265625 0 14 C-3.46214649 16.05164237 -4.59389235 16 -9 16 C-9 10.39 -9 4.78 -9 -1 C-3 -2 -3 -2 0 0 Z " fill="#656565" transform="translate(133,141)"/>
<path d="M0 0 C0.33 0 0.66 0 1 0 C1.33 21.78 1.66 43.56 2 66 C8.27 66.33 14.54 66.66 21 67 C20.67 67.99 20.34 68.98 20 70 C16.85418577 70.02888514 13.70840531 70.04675923 10.5625 70.0625 C9.66466797 70.07087891 8.76683594 70.07925781 7.84179688 70.08789062 C6.56079102 70.09272461 6.56079102 70.09272461 5.25390625 70.09765625 C4.46314697 70.10289307 3.6723877 70.10812988 2.85766602 70.11352539 C1 70 1 70 0 69 C-0.09425595 66.85256451 -0.11742648 64.70198974 -0.11352539 62.55249023 C-0.11367142 61.87934784 -0.11381744 61.20620544 -0.1139679 60.51266479 C-0.11326878 58.27794216 -0.10547652 56.0433019 -0.09765625 53.80859375 C-0.09579206 52.26302638 -0.09436816 50.71745843 -0.09336853 49.17189026 C-0.0895434 45.09642923 -0.07971317 41.02100363 -0.06866455 36.94555664 C-0.05845032 32.78988118 -0.05387089 28.63420001 -0.04882812 24.47851562 C-0.03809089 16.31899413 -0.02101454 8.15950147 0 0 Z " fill="#363635" transform="translate(111,144)"/>
<path d="M0 0 C2.31 0 4.62 0 7 0 C7.02687279 1.81242052 7.04633715 3.62495233 7.0625 5.4375 C7.07410156 6.44683594 7.08570313 7.45617187 7.09765625 8.49609375 C7 11 7 11 6 12 C18.54 12.33 31.08 12.66 44 13 C44 13.66 44 14.32 44 15 C30.8 15.33 17.6 15.66 4 16 C3.67 16.66 3.34 17.32 3 18 C2.34 17.67 1.68 17.34 1 17 C1 15.02 1 13.04 1 11 C1.66 10.67 2.32 10.34 3 10 C5.12508244 6.81237635 5.5020163 4.73487777 6 1 C4.02 1 2.04 1 0 1 C0 0.67 0 0.34 0 0 Z " fill="#646D83" transform="translate(42,86)"/>
<path d="M0 0 C2.89806571 2.89806571 2.80625411 4.93133624 3 9 C1.13924051 16.86075949 1.13924051 16.86075949 -1 19 C-5.42333888 19.36861157 -7.98473627 19.48648054 -12 17.5625 C-14.90381914 13.84198173 -14.4379812 10.55500448 -14 6 C-13.34 6 -12.68 6 -12 6 C-11.690625 7.134375 -11.38125 8.26875 -11.0625 9.4375 C-10.37075469 12.78775099 -10.37075469 12.78775099 -9 14 C-5.54178598 14.25003964 -5.54178598 14.25003964 -2 14 C0.22966747 12.17796419 0.22966747 12.17796419 0.3125 9.5625 C0.18198339 7.02906406 0.18198339 7.02906406 -1.0625 5.25 C-3.89753909 3.42094252 -6.68800975 3.31245191 -10 3 C-10 2.34 -10 1.68 -10 1 C-8.37675914 0.77837671 -6.751279 0.57310197 -5.125 0.375 C-4.22007813 0.25898438 -3.31515625 0.14296875 -2.3828125 0.0234375 C-1.59648438 0.01570312 -0.81015625 0.00796875 0 0 Z " fill="#181C29" transform="translate(104,10)"/>
<path d="M0 0 C14.85 0 29.7 0 45 0 C45 9 45 9 44 20 C29.48 20 14.96 20 0 20 C0.495 18.515 0.495 18.515 1 17 C1.33 17.33 1.66 17.66 2 18 C4.69220228 18.10107439 7.35818447 18.13969767 10.05078125 18.1328125 C11.26630928 18.13424759 11.26630928 18.13424759 12.50639343 18.13571167 C14.22553586 18.13639368 15.94468085 18.13453792 17.66381836 18.13037109 C20.29091223 18.12504378 22.91783351 18.1303046 25.54492188 18.13671875 C27.21354204 18.13605757 28.88216211 18.13477557 30.55078125 18.1328125 C31.33632889 18.13483673 32.12187653 18.13686096 32.93122864 18.13894653 C36.45832952 18.12386594 39.6067064 17.94823386 43 17 C42.98839844 16.43152344 42.97679687 15.86304687 42.96484375 15.27734375 C42.95582031 14.50519531 42.94679687 13.73304687 42.9375 12.9375 C42.92589844 12.18339844 42.91429687 11.42929688 42.90234375 10.65234375 C43.0224626 7.38991586 43.52191953 4.22745671 44 1 C42.77369873 1.0407666 41.54739746 1.0815332 40.28393555 1.12353516 C35.73881313 1.27188582 31.19337112 1.40657184 26.64770508 1.53710938 C24.67949162 1.59554705 22.7113849 1.65770176 20.7434082 1.72363281 C17.91637605 1.81770094 15.08923091 1.89844184 12.26171875 1.9765625 C11.38037766 2.00875885 10.49903656 2.0409552 9.59098816 2.0741272 C8.77036392 2.09429901 7.94973969 2.11447083 7.10424805 2.13525391 C6.38254929 2.15746002 5.66085052 2.17966614 4.9172821 2.20254517 C3 2 3 2 0 0 Z " fill="#5470A4" transform="translate(45,63)"/>
<path d="M0 0 C2 2 2 2 2.3125 4.9375 C2 8 2 8 0.875 9.875 C-1.88090884 11.52854531 -3.85075452 11.39365568 -7 11 C-8.875 9.875 -8.875 9.875 -10 8 C-10.4375 5 -10.4375 5 -10 2 C-6.94783427 -1.63912068 -4.35383535 -1.23043173 0 0 Z " fill="#526896" transform="translate(152,14)"/>
<path d="M0 0 C11.88 0 23.76 0 36 0 C36 0.99 36 1.98 36 3 C23.79 3 11.58 3 -1 3 C-0.67 2.01 -0.34 1.02 0 0 Z " fill="#0B0B0B" transform="translate(70,130)"/>
<path d="M0 0 C2.64 0 5.28 0 8 0 C8 4.29 8 8.58 8 13 C5.36 13 2.72 13 0 13 C0 8.71 0 4.42 0 0 Z " fill="#A6A7A6" transform="translate(110,128)"/>
<path d="M0 0 C0.99 0 1.98 0 3 0 C3 11.22 3 22.44 3 34 C1.515 34.495 1.515 34.495 0 35 C0 23.45 0 11.9 0 0 Z " fill="#B0B0B3" transform="translate(115,144)"/>
<path d="M0 0 C2.475 0.495 2.475 0.495 5 1 C5.33 4.3 5.66 7.6 6 11 C16.23 11.33 26.46 11.66 37 12 C37.495 12.99 37.495 12.99 38 14 C25.79 14 13.58 14 1 14 C1.33 13.34 1.66 12.68 2 12 C2.2275015 10.12943209 2.40962811 8.25314042 2.5625 6.375 C2.68818359 4.87066406 2.68818359 4.87066406 2.81640625 3.3359375 C2.87699219 2.56507812 2.93757813 1.79421875 3 1 C2.01 0.67 1.02 0.34 0 0 Z " fill="#01010C" transform="translate(46,85)"/>
<path d="M0 0 C13.2 0 26.4 0 40 0 C40.495 0.99 40.495 0.99 41 2 C39.64455078 2.05607422 39.64455078 2.05607422 38.26171875 2.11328125 C37.08222656 2.17902344 35.90273437 2.24476562 34.6875 2.3125 C33.51574219 2.37050781 32.34398437 2.42851563 31.13671875 2.48828125 C27.9016314 3.01604768 26.91315119 3.42380724 25 6 C25 4.68 25 3.36 25 2 C23.3739713 2.06000106 21.74898451 2.1487885 20.125 2.25 C19.22007813 2.29640625 18.31515625 2.3428125 17.3828125 2.390625 C14.82889456 2.75611148 14.82889456 2.75611148 13.6796875 5.046875 C13.34324219 6.01367188 13.34324219 6.01367188 13 7 C12.67 7 12.34 7 12 7 C12 5.35 12 3.7 12 2 C7.71 2 3.42 2 -1 2 C-0.67 1.34 -0.34 0.68 0 0 Z " fill="#02020E" transform="translate(47,120)"/>
<path d="M0 0 C0.65250732 0.32145996 1.30501465 0.64291992 1.97729492 0.97412109 C5.78409911 2.26611618 9.3873605 2.35376353 13.36328125 2.4140625 C14.55125557 2.44311172 14.55125557 2.44311172 15.76322937 2.4727478 C18.27954519 2.53227232 20.79590744 2.57881958 23.3125 2.625 C25.0241079 2.66320481 26.73569709 2.70225799 28.44726562 2.7421875 C32.63135749 2.8379513 36.81553931 2.9220818 41 3 C40.67 3.66 40.34 4.32 40 5 C27.13 5 14.26 5 1 5 C0.67 3.35 0.34 1.7 0 0 Z " fill="#010101" transform="translate(66,135)"/>
<path d="M0 0 C1.62490954 -0.02698189 3.24994633 -0.04638757 4.875 -0.0625 C5.77992187 -0.07410156 6.68484375 -0.08570313 7.6171875 -0.09765625 C10 0 10 0 12 1 C12 3.97 12 6.94 12 10 C12.33 10 12.66 10 13 10 C13 15.61 13 21.22 13 27 C12.01 27.33 11.02 27.66 10 28 C9.98018066 27.31373535 9.96036133 26.6274707 9.93994141 25.92041016 C9.84489055 22.82154221 9.73513153 19.72336706 9.625 16.625 C9.5940625 15.54476563 9.563125 14.46453125 9.53125 13.3515625 C9.49257812 12.3203125 9.45390625 11.2890625 9.4140625 10.2265625 C9.3826416 9.27346191 9.3512207 8.32036133 9.31884766 7.33837891 C9.21444204 4.81104824 9.21444204 4.81104824 7 3 C3.91652174 2.83318891 3.91652174 2.83318891 1 3 C0.67 2.01 0.34 1.02 0 0 Z " fill="#020614" transform="translate(119,11)"/>
<path d="M0 0 C11.22 0 22.44 0 34 0 C34 0.33 34 0.66 34 1 C26.02509872 2.32915021 18.05813281 2.08801359 10 2 C9.67 3.32 9.34 4.64 9 6 C8.67 5.34 8.34 4.68 8 4 C7.34 4 6.68 4 6 4 C6 5.32 6 6.64 6 8 C5.01 7.67 4.02 7.34 3 7 C3.33 5.35 3.66 3.7 4 2 C2.68 1.34 1.36 0.68 0 0 Z " fill="#02020B" transform="translate(49,102)"/>
<path d="M0 0 C0.66 0.33 1.32 0.66 2 1 C2 8.26 2 15.52 2 23 C0.02 23.66 -1.96 24.32 -4 25 C-4 27.64 -4 30.28 -4 33 C-4.66 33 -5.32 33 -6 33 C-6 29.7 -6 26.4 -6 23 C-4.02 23 -2.04 23 0 23 C0 20.03 0 17.06 0 14 C-0.99 15.485 -0.99 15.485 -2 17 C-2.21824777 10.9981863 -1.5056904 5.80766296 0 0 Z " fill="#565A65" transform="translate(91,63)"/>
<path d="M0 0 C0.33 0 0.66 0 1 0 C1.0272415 1.41655793 1.04650467 2.83327045 1.0625 4.25 C1.07410156 5.03890625 1.08570313 5.8278125 1.09765625 6.640625 C1.00385306 8.90691002 0.63241063 10.8288895 0 13 C-6.625 14.125 -6.625 14.125 -10 13 C-11.91765594 12.85060226 -13.83946522 12.75189717 -15.76171875 12.68359375 C-17.43911133 12.62075195 -17.43911133 12.62075195 -19.15039062 12.55664062 C-20.31763672 12.51732422 -21.48488281 12.47800781 -22.6875 12.4375 C-24.45577148 12.37272461 -24.45577148 12.37272461 -26.25976562 12.30664062 C-29.17305883 12.20048824 -32.08643757 12.09843758 -35 12 C-35 11.67 -35 11.34 -35 11 C-24.44 10.67 -13.88 10.34 -3 10 C-2.01 6.7 -1.02 3.4 0 0 Z " fill="#01030F" transform="translate(91,73)"/>
<path d="M0 0 C0.33 0 0.66 0 1 0 C1.02505615 0.92337158 1.0501123 1.84674316 1.07592773 2.7980957 C1.17109045 6.22546416 1.27032214 9.65266461 1.37231445 13.07983398 C1.4156133 14.56286015 1.45729199 16.04593454 1.49731445 17.52905273 C1.55513958 19.66144339 1.61879832 21.79359242 1.68359375 23.92578125 C1.72025146 25.20880127 1.75690918 26.49182129 1.79467773 27.8137207 C1.86561234 31.02111551 1.86561234 31.02111551 3 34 C0.65147472 35.17426264 -0.73774065 35.11508173 -3.3515625 35.09765625 C-4.20234375 35.09443359 -5.053125 35.09121094 -5.9296875 35.08789062 C-6.81914063 35.07951172 -7.70859375 35.07113281 -8.625 35.0625 C-9.97078125 35.05573242 -9.97078125 35.05573242 -11.34375 35.04882812 C-13.56256648 35.03702591 -15.78125018 35.02056155 -18 35 C-18 34.67 -18 34.34 -18 34 C-12.39 34 -6.78 34 -1 34 C-0.67 22.78 -0.34 11.56 0 0 Z " fill="#737375" transform="translate(132,180)"/>
<path d="M0 0 C0 1.98 0 3.96 0 6 C-3.375 6.625 -3.375 6.625 -7 7 C-9 5 -9 5 -9.125 2.375 C-9.08375 1.59125 -9.0425 0.8075 -9 0 C-5.52176885 -1.15941038 -3.54104422 -0.70820884 0 0 Z " fill="#466CAF" transform="translate(103,17)"/>
<path d="M0 0 C2 4 2 4 2 6 C3.299375 5.979375 4.59875 5.95875 5.9375 5.9375 C7.29165633 5.91600546 8.64756083 5.92851801 10 6 C11 7 11 7 11.0625 9.5625 C11.041875 10.366875 11.02125 11.17125 11 12 C9.68 10.68 8.36 9.36 7 8 C6.01 8.66 5.02 9.32 4 10 C3.61615491 12.93597539 3.396157 15.68027373 3.3125 18.625 C3.27833984 19.42679688 3.24417969 20.22859375 3.20898438 21.0546875 C3.12643122 23.03596318 3.06154084 25.01796037 3 27 C2.67 27 2.34 27 2 27 C1.67 21.06 1.34 15.12 1 9 C0.67 9 0.34 9 0 9 C0 6.03 0 3.06 0 0 Z " fill="#807E81" transform="translate(130,14)"/>
<path d="M0 0 C1.65 0.33 3.3 0.66 5 1 C5.6875 2.8125 5.6875 2.8125 6 5 C4.875 6.75 4.875 6.75 3 8 C0.3125 8.1875 0.3125 8.1875 -2 8 C-2.33 6.35 -2.66 4.7 -3 3 C-2.01 2.67 -1.02 2.34 0 2 C0 1.34 0 0.68 0 0 Z " fill="#4B6CAD" transform="translate(147,15)"/>
<path d="M0 0 C5.94 0 11.88 0 18 0 C17.67 0.99 17.34 1.98 17 3 C11.39 3 5.78 3 0 3 C0 2.01 0 1.02 0 0 Z " fill="#060607" transform="translate(114,211)"/>
<path d="M0 0 C1.65 0 3.3 0 5 0 C5.33 2.97 5.66 5.94 6 9 C4.02 9 2.04 9 0 9 C0 6.03 0 3.06 0 0 Z " fill="#C1C3C2" transform="translate(112,130)"/>
<path d="M0 0 C1.98 0 3.96 0 6 0 C6.33 0.66 6.66 1.32 7 2 C6.01 2.33 5.02 2.66 4 3 C3.34 2.67 2.68 2.34 2 2 C2 13.88 2 25.76 2 38 C1.67 38 1.34 38 1 38 C0.67 25.46 0.34 12.92 0 0 Z " fill="#191A1B" transform="translate(119,40)"/>
<path d="M0 0 C0 0.33 0 0.66 0 1 C-2.97 1 -5.94 1 -9 1 C-9 1.66 -9 2.32 -9 3 C-8.34 3.33 -7.68 3.66 -7 4 C-7.66 4.66 -8.32 5.32 -9 6 C-9.64767793 8.57061311 -9.64767793 8.57061311 -10 11 C-10.33 11 -10.66 11 -11 11 C-11 9.35 -11 7.7 -11 6 C-11.66 6 -12.32 6 -13 6 C-13 8.31 -13 10.62 -13 13 C-13.33 13 -13.66 13 -14 13 C-14.46077348 3.93812155 -14.46077348 3.93812155 -11 0 C-7.16686968 -1.45037364 -3.94720115 -0.82615838 0 0 Z " fill="#60646B" transform="translate(103,10)"/>
<path d="M0 0 C2.8086289 2.8086289 2.72711179 5.11134294 3 9 C2.01 10.485 2.01 10.485 1 12 C0.71125 11.05125 0.4225 10.1025 0.125 9.125 C-0.76825109 5.94788422 -0.76825109 5.94788422 -3 4 C-5.32275177 3.59952556 -7.65739357 3.2602896 -10 3 C-10 2.34 -10 1.68 -10 1 C-8.37675914 0.77837671 -6.751279 0.57310197 -5.125 0.375 C-4.22007813 0.25898438 -3.31515625 0.14296875 -2.3828125 0.0234375 C-1.59648438 0.01570312 -0.81015625 0.00796875 0 0 Z " fill="#151926" transform="translate(104,10)"/>
<path d="M0 0 C0.515625 0.53625 1.03125 1.0725 1.5625 1.625 C-1.4075 1.625 -4.3775 1.625 -7.4375 1.625 C-6.7775 2.285 -6.1175 2.945 -5.4375 3.625 C-4.6125 3.604375 -3.7875 3.58375 -2.9375 3.5625 C-1.7 3.5934375 -1.7 3.5934375 -0.4375 3.625 C0.5525 5.11 0.5525 5.11 1.5625 6.625 C-1.7375 6.625 -5.0375 6.625 -8.4375 6.625 C-8.7675 5.965 -9.0975 5.305 -9.4375 4.625 C-10.4275 5.12 -10.4275 5.12 -11.4375 5.625 C-10.875 3.25 -10.875 3.25 -9.4375 0.625 C-3.53919492 -1.99646893 -3.53919492 -1.99646893 0 0 Z " fill="#4F5D7C" transform="translate(126.4375,9.375)"/>
<path d="M0 0 C0.33 0 0.66 0 1 0 C1.6 7.8 1.6 7.8 -0.3125 11.625 C-4.73870315 13.88956905 -9.21349935 12.75923803 -14 12 C-14.33 13.32 -14.66 14.64 -15 16 C-15 14.35 -15 12.7 -15 11 C-9.06 10.505 -9.06 10.505 -3 10 C-3 8.68 -3 7.36 -3 6 C-2.34 6 -1.68 6 -1 6 C-0.67 4.02 -0.34 2.04 0 0 Z " fill="#747476" transform="translate(90,111)"/>
<path d="M0 0 C2.12493141 -0.02693575 4.24995912 -0.04636628 6.375 -0.0625 C7.55835938 -0.07410156 8.74171875 -0.08570312 9.9609375 -0.09765625 C13 0 13 0 15 1 C15 2.98 15 4.96 15 7 C15.99 7 16.98 7 18 7 C17.67 8.32 17.34 9.64 17 11 C12.57142857 5.85714286 12.57142857 5.85714286 12 2 C10.14375 2.309375 10.14375 2.309375 8.25 2.625 C4.88090165 3.06107124 2.87158079 3.03403639 0 1 C0 0.67 0 0.34 0 0 Z " fill="#6F7073" transform="translate(44,121)"/>
<path d="M0 0 C0.33 0 0.66 0 1 0 C1.82791426 3.20816776 2.14234009 6.32522388 2.25 9.625 C2.27578125 10.38039063 2.3015625 11.13578125 2.328125 11.9140625 C1.92039017 14.50609104 0.98700422 15.35810704 -1 17 C-1.93213141 10.73960391 -2.20927172 5.97802937 0 0 Z " fill="#292E37" transform="translate(42,69)"/>
<path d="M0 0 C2.56295176 2.66974142 2.99337817 3.90232794 3.25 7.6875 C3 11 3 11 2 12 C1.76572222 14.01594582 1.58663876 16.038474 1.4375 18.0625 C1.35371094 19.16722656 1.26992187 20.27195313 1.18359375 21.41015625 C1.12300781 22.26480469 1.06242187 23.11945313 1 24 C0.67 24 0.34 24 0 24 C0 19.71 0 15.42 0 11 C-0.66 10.67 -1.32 10.34 -2 10 C-1.67 9.67 -1.34 9.34 -1 9 C-0.76807135 7.48530552 -0.58784762 5.96245438 -0.4375 4.4375 C-0.35371094 3.61121094 -0.26992187 2.78492187 -0.18359375 1.93359375 C-0.12300781 1.29550781 -0.06242187 0.65742187 0 0 Z " fill="#151716" transform="translate(118,117)"/>
<path d="M0 0 C1.98 0 3.96 0 6 0 C6 4.62 6 9.24 6 14 C4.68 13.67 3.36 13.34 2 13 C2.33 12.67 2.66 12.34 3 12 C3.23287008 10.31816052 3.41264166 8.6287584 3.5625 6.9375 C3.68818359 5.55884766 3.68818359 5.55884766 3.81640625 4.15234375 C3.87699219 3.44207031 3.93757812 2.73179687 4 2 C2.68 2 1.36 2 0 2 C0 1.34 0 0.68 0 0 Z " fill="#020202" transform="translate(125,141)"/>
<path d="M0 0 C0.66 1.32 1.32 2.64 2 4 C2.66 3.67 3.32 3.34 4 3 C4.21192221 8.19209404 3.5912689 12.126739 2 17 C1.67 17 1.34 17 1 17 C0.86722656 16.09636719 0.73445313 15.19273438 0.59765625 14.26171875 C0.42105469 13.08222656 0.24445312 11.90273437 0.0625 10.6875 C-0.11152344 9.51574219 -0.28554688 8.34398438 -0.46484375 7.13671875 C-0.92093031 3.98358597 -0.92093031 3.98358597 -2 1 C-1.34 0.67 -0.68 0.34 0 0 Z " fill="#202532" transform="translate(39,59)"/>
<path d="M0 0 C7.42857143 -0.28571429 7.42857143 -0.28571429 11 2 C8.23522547 4.76477453 5.8033247 4.52458441 2 5 C1.01 5.495 1.01 5.495 0 6 C-1.125 2.25 -1.125 2.25 0 0 Z " fill="#242425" transform="translate(107,124)"/>
<path d="M0 0 C1.485 0.99 1.485 0.99 3 2 C3 2.66 3 3.32 3 4 C4.98 3.67 6.96 3.34 9 3 C9 3.66 9 4.32 9 5 C6.69 5 4.38 5 2 5 C2.226875 5.928125 2.45375 6.85625 2.6875 7.8125 C3 11 3 11 1.5625 12.875 C1.046875 13.24625 0.53125 13.6175 0 14 C-1.03115279 10.73086376 -0.9638984 8.13958652 -0.5625 4.75 C-0.46066406 3.85796875 -0.35882813 2.9659375 -0.25390625 2.046875 C-0.17011719 1.37140625 -0.08632812 0.6959375 0 0 Z " fill="#89898B" transform="translate(106,13)"/>
<path d="M0 0 C0.66 0.33 1.32 0.66 2 1 C0.125 5.875 0.125 5.875 -1 7 C-3.67058851 7.14115161 -6.32432238 7.04247107 -9 7 C-9 6.34 -9 5.68 -9 5 C-8.43410156 4.72285156 -7.86820312 4.44570313 -7.28515625 4.16015625 C-6.55167969 3.79792969 -5.81820312 3.43570312 -5.0625 3.0625 C-3.96615234 2.52302734 -3.96615234 2.52302734 -2.84765625 1.97265625 C-1.03750973 1.13628173 -1.03750973 1.13628173 0 0 Z " fill="#30323C" transform="translate(104,22)"/>
<path d="M0 0 C1.11375 0.3403125 1.11375 0.3403125 2.25 0.6875 C-1.60623679 5.50779598 -1.60623679 5.50779598 -4.86328125 6.01953125 C-6.82856214 6.0020776 -8.79166127 5.85346091 -10.75 5.6875 C-9.41666667 4.6875 -8.08333333 3.6875 -6.75 2.6875 C-6.110625 2.11 -5.47125 1.5325 -4.8125 0.9375 C-2.75 -0.3125 -2.75 -0.3125 0 0 Z " fill="#2E323D" transform="translate(155.75,22.3125)"/>
<path d="M0 0 C0.99 0.33 1.98 0.66 3 1 C2.25 5.75 2.25 5.75 0 8 C0.33 8.99 0.66 9.98 1 11 C0.0625 13.6875 0.0625 13.6875 -1 16 C-1.66 15.67 -2.32 15.34 -3 15 C-2.835 14.484375 -2.67 13.96875 -2.5 13.4375 C-1.84951 10.26636124 -1.9379266 7.22781666 -2 4 C-0.68 3.34 0.64 2.68 2 2 C1.34 2 0.68 2 0 2 C0 1.34 0 0.68 0 0 Z " fill="#A1A2A4" transform="translate(45,104)"/>
<path d="M0 0 C1.62490954 -0.02698189 3.24994633 -0.04638757 4.875 -0.0625 C5.77992187 -0.07410156 6.68484375 -0.08570313 7.6171875 -0.09765625 C10 0 10 0 12 1 C11.67 1.99 11.34 2.98 11 4 C7.7 3.67 4.4 3.34 1 3 C0.67 2.01 0.34 1.02 0 0 Z " fill="#181C25" transform="translate(119,11)"/>
<path d="M0 0 C5.75 1.625 5.75 1.625 8 5 C3.38 5 -1.24 5 -6 5 C-6 4.67 -6 4.34 -6 4 C-4.02 4 -2.04 4 0 4 C0 2.68 0 1.36 0 0 Z " fill="#0D0E17" transform="translate(55,106)"/>
<path d="M0 0 C1.32 0.33 2.64 0.66 4 1 C3.34 1 2.68 1 2 1 C2 1.99 2 2.98 2 4 C3.32 4.33 4.64 4.66 6 5 C6 6.98 6 8.96 6 11 C4.5 9.625 4.5 9.625 3 8 C3 7.34 3 6.68 3 6 C2.01 5.67 1.02 5.34 0 5 C0 3.35 0 1.7 0 0 Z " fill="#3D3E3F" transform="translate(84,104)"/>
<path d="M0 0 C3.465 1.485 3.465 1.485 7 3 C6.34 3.66 5.68 4.32 5 5 C6.65 5.33 8.3 5.66 10 6 C10 6.33 10 6.66 10 7 C2.60045489 7.36391205 2.60045489 7.36391205 -0.0625 5.75 C-1 4 -1 4 -0.6875 1.8125 C-0.460625 1.214375 -0.23375 0.61625 0 0 Z " fill="#4A4D5C" transform="translate(142,22)"/>
<path d="M0 0 C0.33 0 0.66 0 1 0 C1.06058594 1.18078125 1.12117188 2.3615625 1.18359375 3.578125 C1.26802582 5.1354277 1.35267249 6.69271879 1.4375 8.25 C1.47681641 9.02730469 1.51613281 9.80460938 1.55664062 10.60546875 C1.59853516 11.35957031 1.64042969 12.11367187 1.68359375 12.890625 C1.72025146 13.58188477 1.75690918 14.27314453 1.79467773 14.98535156 C2.00675524 17.06628329 2.44508677 18.98572422 3 21 C2.01 20.67 1.02 20.34 0 20 C0 13.4 0 6.8 0 0 Z " fill="#414140" transform="translate(111,193)"/>
<path d="M0 0 C0.33 0 0.66 0 1 0 C0.67 5.28 0.34 10.56 0 16 C-0.33 16 -0.66 16 -1 16 C-1.06058594 15.24074219 -1.12117188 14.48148438 -1.18359375 13.69921875 C-1.26738281 12.70535156 -1.35117188 11.71148437 -1.4375 10.6875 C-1.51871094 9.70136719 -1.59992188 8.71523437 -1.68359375 7.69921875 C-1.91812559 4.90624401 -1.91812559 4.90624401 -3 2 C-2.34 2 -1.68 2 -1 2 C-0.67 1.34 -0.34 0.68 0 0 Z " fill="#898A8D" transform="translate(94,59)"/>
<path d="M0 0 C0 1.65 0 3.3 0 5 C-1.65 5 -3.3 5 -5 5 C-5 3.68 -5 2.36 -5 1 C-3 0 -3 0 0 0 Z " fill="#466CB9" transform="translate(151,17)"/>
<path d="M0 0 C1.09658936 3.28976808 0.79953138 4.71303767 0 8 C-2.97 7.67 -5.94 7.34 -9 7 C-8.67 5.68 -8.34 4.36 -8 3 C-7.67 3.66 -7.34 4.32 -7 5 C-5.02 5 -3.04 5 -1 5 C-0.67 3.35 -0.34 1.7 0 0 Z " fill="#959697" transform="translate(140,11)"/>
<path d="M0 0 C1.65 0 3.3 0 5 0 C4.01 1.485 4.01 1.485 3 3 C2.29835358 4.98799818 1.62627128 6.98698517 1 9 C0.67 9 0.34 9 0 9 C0 6.03 0 3.06 0 0 Z " fill="#090909" transform="translate(112,79)"/>
<path d="M0 0 C0.99 0.33 1.98 0.66 3 1 C3.33 3.64 3.66 6.28 4 9 C3.34 9 2.68 9 2 9 C0 7 0 7 -0.125 3.375 C-0.08375 2.26125 -0.0425 1.1475 0 0 Z " fill="#85878B" transform="translate(155,13)"/>
<path d="M0 0 C2.475 0.99 2.475 0.99 5 2 C5 2.99 5 3.98 5 5 C3.35 4.67 1.7 4.34 0 4 C0 2.68 0 1.36 0 0 Z " fill="#232323" transform="translate(66,135)"/>
<path d="M0 0 C2.23551759 3.35327639 2.17283528 3.90743657 1.625 7.6875 C1.51414063 8.49574219 1.40328125 9.30398437 1.2890625 10.13671875 C1.19367187 10.75160156 1.09828125 11.36648437 1 12 C0.67 12 0.34 12 0 12 C-0.66 8.37 -1.32 4.74 -2 1 C-1.34 0.67 -0.68 0.34 0 0 Z " fill="#8B8C8E" transform="translate(39,59)"/>
<path d="M0 0 C1.32 0.99 2.64 1.98 4 3 C0.37 3.33 -3.26 3.66 -7 4 C-7 3.34 -7 2.68 -7 2 C-3.75 0.8125 -3.75 0.8125 0 0 Z " fill="#A7A8A7" transform="translate(124,8)"/>
<path d="M0 0 C3 1 3 1 3 1 Z " fill="#FFFFFF" transform="translate(64,106)"/>
<path d="" fill="#FFFFFF" transform="translate(0,0)"/>
<path d="M0 0 C2 1 2 1 2 1 Z " fill="#FFFFFF" transform="translate(127,138)"/>
<path d="M0 0 C2 1 2 1 2 1 Z " fill="#FFFFFF" transform="translate(78,124)"/>
<path d="M0 0 C2 1 2 1 2 1 Z " fill="#FFFFFF" transform="translate(53,124)"/>
<path d="" fill="#FFFFFF" transform="translate(0,0)"/>
<path d="" fill="#FFFFFF" transform="translate(0,0)"/>
<path d="" fill="#FFFFFF" transform="translate(0,0)"/>
<path d="" fill="#FFFFFF" transform="translate(0,0)"/>
<path d="" fill="#FFFFFF" transform="translate(0,0)"/>
<path d="" fill="#FFFFFF" transform="translate(0,0)"/>
<path d="" fill="#FFFFFF" transform="translate(0,0)"/>
<path d="" fill="#FFFFFF" transform="translate(0,0)"/>
<path d="" fill="#FFFFFF" transform="translate(0,0)"/>
<path d="" fill="#FFFFFF" transform="translate(0,0)"/>
<path d="" fill="#FFFFFF" transform="translate(0,0)"/>
<path d="" fill="#FFFFFF" transform="translate(0,0)"/>
<path d="" fill="#FFFFFF" transform="translate(0,0)"/>
<path d="" fill="#FFFFFF" transform="translate(0,0)"/>
<path d="" fill="#FFFFFF" transform="translate(0,0)"/>
<path d="" fill="#FFFFFF" transform="translate(0,0)"/>
<path d="" fill="#FFDBFF" transform="translate(0,0)"/>
<path d="" fill="#FFFFFF" transform="translate(0,0)"/>
<path d="" fill="#FFFFFF" transform="translate(0,0)"/>
<path d="" fill="#FFFFFF" transform="translate(0,0)"/>
<path d="" fill="#FFFFFF" transform="translate(0,0)"/>
<path d="" fill="#FFFFFF" transform="translate(0,0)"/>
<path d="" fill="#FFFFFF" transform="translate(0,0)"/>
<path d="" fill="#FFFFFF" transform="translate(0,0)"/>
<path d="" fill="#FFFFFF" transform="translate(0,0)"/>
<path d="" fill="#FFFFFF" transform="translate(0,0)"/>
</svg>
